<svg width="1076" height="407" viewBox="0 0 1076 407" fill="none" xmlns="http://www.w3.org/2000/svg">
<path d="M1068 232.307V98.5991C1068 97.7707 1067.33 97.0991 1066.5 97.0991C1065.67 97.0991 1065 97.7707 1065 98.5991V232.307C1065 233.136 1065.67 233.807 1066.5 233.807C1067.33 233.807 1068 233.136 1068 232.307Z" fill="url(#paint0_linear_62_819)"/>
<path d="M1038 237.318V100.594C1038 99.7653 1037.33 99.0938 1036.5 99.0938C1035.67 99.0938 1035 99.7653 1035 100.594V237.318C1035 238.146 1035.67 238.818 1036.5 238.818C1037.33 238.818 1038 238.146 1038 237.318Z" fill="url(#paint1_linear_62_819)"/>
<path d="M1007 241.318V105.599C1007 104.771 1006.33 104.099 1005.5 104.099C1004.67 104.099 1004 104.771 1004 105.599V241.318C1004 242.146 1004.67 242.818 1005.5 242.818C1006.33 242.818 1007 242.146 1007 241.318Z" fill="url(#paint2_linear_62_819)"/>
<path d="M977 240.312V107.609C977 106.781 976.328 106.109 975.5 106.109C974.672 106.109 974 106.781 974 107.609V240.312C974 241.141 974.672 241.812 975.5 241.812C976.328 241.812 977 241.141 977 240.312Z" fill="url(#paint3_linear_62_819)"/>
<path d="M946 236.292V111.63C946 110.802 945.328 110.13 944.5 110.13C943.672 110.13 943 110.802 943 111.63V236.292C943 237.12 943.672 237.792 944.5 237.792C945.328 237.792 946 237.12 946 236.292Z" fill="url(#paint4_linear_62_819)"/>
<path d="M916 231.266V117.662C916 116.833 915.328 116.162 914.5 116.162C913.672 116.162 913 116.833 913 117.662V231.266C913 232.094 913.672 232.766 914.5 232.766C915.328 232.766 916 232.094 916 231.266Z" fill="url(#paint5_linear_62_819)"/>
<path d="M886 224.229V124.698C886 123.869 885.328 123.198 884.5 123.198C883.672 123.198 883 123.869 883 124.698V224.229C883 225.057 883.672 225.729 884.5 225.729C885.328 225.729 886 225.057 886 224.229Z" fill="url(#paint6_linear_62_819)"/>
<path d="M855 217.193V133.745C855 132.916 854.328 132.245 853.5 132.245C852.672 132.245 852 132.916 852 133.745V217.193C852 218.021 852.672 218.693 853.5 218.693C854.328 218.693 855 218.021 855 217.193Z" fill="url(#paint7_linear_62_819)"/>
<path d="M825 209.151V141.787C825 140.958 824.328 140.287 823.5 140.287C822.672 140.287 822 140.958 822 141.787V209.151C822 209.98 822.672 210.651 823.5 210.651C824.328 210.651 825 209.98 825 209.151Z" fill="url(#paint8_linear_62_819)"/>
<path d="M794 202.115V149.828C794 149 793.328 148.328 792.5 148.328C791.672 148.328 791 149 791 149.828V202.115C791 202.943 791.672 203.615 792.5 203.615C793.328 203.615 794 202.943 794 202.115Z" fill="url(#paint9_linear_62_819)"/>
<path d="M764 198.094V157.87C764 157.041 763.328 156.37 762.5 156.37C761.672 156.37 761 157.041 761 157.87V198.094C761 198.922 761.672 199.594 762.5 199.594C763.328 199.594 764 198.922 764 198.094Z" fill="url(#paint10_linear_62_819)"/>
<path d="M733 196.083V162.896C733 162.068 732.328 161.396 731.5 161.396C730.672 161.396 730 162.068 730 162.896V196.083C730 196.912 730.672 197.583 731.5 197.583C732.328 197.583 733 196.912 733 196.083Z" fill="url(#paint11_linear_62_819)"/>
<path d="M703 192.078V162.912C703 162.083 702.328 161.412 701.5 161.412C700.672 161.412 700 162.083 700 162.912V192.078C700 192.907 700.672 193.578 701.5 193.578C702.328 193.578 703 192.907 703 192.078Z" fill="url(#paint12_linear_62_819)"/>
<path d="M673 189.083V156.901C673 156.072 672.328 155.401 671.5 155.401C670.672 155.401 670 156.072 670 156.901V189.083C670 189.912 670.672 190.583 671.5 190.583C672.328 190.583 673 189.912 673 189.083Z" fill="url(#paint13_linear_62_819)"/>
<path d="M642 191.099V150.875C642 150.047 641.328 149.375 640.5 149.375C639.672 149.375 639 150.047 639 150.875V191.099C639 191.927 639.672 192.599 640.5 192.599C641.328 192.599 642 191.927 642 191.099Z" fill="url(#paint14_linear_62_819)"/>
<path d="M612 194.12V140.828C612 140 611.328 139.328 610.5 139.328C609.672 139.328 609 140 609 140.828V194.12C609 194.948 609.672 195.62 610.5 195.62C611.328 195.62 612 194.948 612 194.12Z" fill="url(#paint15_linear_62_819)"/>
<path d="M581 199.146V128.766C581 127.937 580.328 127.266 579.5 127.266C578.672 127.266 578 127.937 578 128.766V199.146C578 199.974 578.672 200.646 579.5 200.646C580.328 200.646 581 199.974 581 199.146Z" fill="url(#paint16_linear_62_819)"/>
<path d="M551 206.188V113.693C551 112.864 550.328 112.193 549.5 112.193C548.672 112.193 548 112.864 548 113.693V206.188C548 207.016 548.672 207.688 549.5 207.688C550.328 207.688 551 207.016 551 206.188Z" fill="url(#paint17_linear_62_819)"/>
<path d="M520 216.234V100.62C520 99.7912 519.328 99.1196 518.5 99.1196C517.672 99.1196 517 99.7912 517 100.62V216.234C517 217.063 517.672 217.734 518.5 217.734C519.328 217.734 520 217.063 520 216.234Z" fill="url(#paint18_linear_62_819)"/>
<path d="M490 229.292V91.5625C490 90.7341 489.328 90.0625 488.5 90.0625C487.672 90.0625 487 90.7341 487 91.5625V229.292C487 230.12 487.672 230.792 488.5 230.792C489.328 230.792 490 230.12 490 229.292Z" fill="url(#paint19_linear_62_819)"/>
<path d="M459 240.349V83.521C459 82.6926 458.328 82.021 457.5 82.021C456.672 82.021 456 82.6926 456 83.521V240.349C456 241.178 456.672 241.849 457.5 241.849C458.328 241.849 459 241.178 459 240.349Z" fill="url(#paint20_linear_62_819)"/>
<path d="M429 254.401V83.5C429 82.6716 428.328 82 427.5 82C426.672 82 426 82.6716 426 83.5V254.401C426 255.229 426.672 255.901 427.5 255.901C428.328 255.901 429 255.229 429 254.401Z" fill="url(#paint21_linear_62_819)"/>
<path d="M399 265.443V86.5C399 85.6716 398.328 85 397.5 85C396.672 85 396 85.6716 396 86.5V265.443C396 266.271 396.672 266.943 397.5 266.943C398.328 266.943 399 266.271 399 265.443Z" fill="url(#paint22_linear_62_819)"/>
<path d="M368 272.479V91.5259C368 90.6975 367.328 90.0259 366.5 90.0259C365.672 90.0259 365 90.6975 365 91.5259V272.479C365 273.307 365.672 273.979 366.5 273.979C367.328 273.979 368 273.307 368 272.479Z" fill="url(#paint23_linear_62_819)"/>
<path d="M338 275.495V102.583C338 101.755 337.328 101.083 336.5 101.083C335.672 101.083 335 101.755 335 102.583V275.495C335 276.323 335.672 276.995 336.5 276.995C337.328 276.995 338 276.323 338 275.495Z" fill="url(#paint24_linear_62_819)"/>
<path d="M307 276.5V119.672C307 118.843 306.328 118.172 305.5 118.172C304.672 118.172 304 118.843 304 119.672V276.5C304 277.328 304.672 278 305.5 278C306.328 278 307 277.328 307 276.5Z" fill="url(#paint25_linear_62_819)"/>
<path d="M277 274.49V140.781C277 139.953 276.328 139.281 275.5 139.281C274.672 139.281 274 139.953 274 140.781V274.49C274 275.318 274.672 275.99 275.5 275.99C276.328 275.99 277 275.318 277 274.49Z" fill="url(#paint26_linear_62_819)"/>
<path d="M246 269.463V157.87C246 157.041 245.328 156.37 244.5 156.37C243.672 156.37 243 157.041 243 157.87V269.463C243 270.292 243.672 270.963 244.5 270.963C245.328 270.963 246 270.292 246 269.463Z" fill="url(#paint27_linear_62_819)"/>
<path d="M216 258.427V158.896C216 158.068 215.328 157.396 214.5 157.396C213.672 157.396 213 158.068 213 158.896V258.427C213 259.256 213.672 259.927 214.5 259.927C215.328 259.927 216 259.256 216 258.427Z" fill="url(#paint28_linear_62_819)"/>
<path d="M186 243.375V151.885C186 151.057 185.328 150.385 184.5 150.385C183.672 150.385 183 151.057 183 151.885V243.375C183 244.203 183.672 244.875 184.5 244.875C185.328 244.875 186 244.203 186 243.375Z" fill="url(#paint29_linear_62_819)"/>
<path d="M155 228.318V137.833C155 137.005 154.328 136.333 153.5 136.333C152.672 136.333 152 137.005 152 137.833V228.318C152 229.146 152.672 229.818 153.5 229.818C154.328 229.818 155 229.146 155 228.318Z" fill="url(#paint30_linear_62_819)"/>
<path d="M125 220.266V124.755C125 123.927 124.328 123.255 123.5 123.255C122.672 123.255 122 123.927 122 124.755V220.266C122 221.094 122.672 221.766 123.5 221.766C124.328 221.766 125 221.094 125 220.266Z" fill="url(#paint31_linear_62_819)"/>
<path d="M94 217.224V116.688C94 115.859 93.3284 115.188 92.5 115.188C91.6716 115.188 91 115.859 91 116.688V217.224C91 218.052 91.6716 218.724 92.5 218.724C93.3284 218.724 94 218.052 94 217.224Z" fill="url(#paint32_linear_62_819)"/>
<path d="M64 214.198V113.662C64 112.833 63.3284 112.162 62.5 112.162C61.6716 112.162 61 112.833 61 113.662V214.198C61 215.027 61.6716 215.698 62.5 215.698C63.3284 215.698 64 215.027 64 214.198Z" fill="url(#paint33_linear_62_819)"/>
<path d="M33 216.187V118.667C33 117.838 32.3284 117.167 31.5 117.167C30.6716 117.167 30 117.838 30 118.667V216.187C30 217.016 30.6716 217.687 31.5 217.687C32.3284 217.687 33 217.016 33 216.187Z" fill="url(#paint34_linear_62_819)"/>
<path d="M3 217.193V124.698C3 123.869 2.32843 123.198 1.5 123.198C0.671573 123.198 0 123.869 0 124.698V217.193C0 218.021 0.671573 218.693 1.5 218.693C2.32843 218.693 3 218.021 3 217.193Z" fill="url(#paint35_linear_62_819)"/>
<path d="M1068 100.5V1.5C1068 0.671573 1067.33 0 1066.5 0C1065.67 0 1065 0.671574 1065 1.5V100.5C1065 101.328 1065.67 102 1066.5 102C1067.33 102 1068 101.328 1068 100.5Z" fill="url(#paint36_linear_62_819)"/>
<path d="M1038 101.5V1.5C1038 0.671573 1037.33 0 1036.5 0C1035.67 0 1035 0.671571 1035 1.5V101.5C1035 102.328 1035.67 103 1036.5 103C1037.33 103 1038 102.328 1038 101.5Z" fill="url(#paint37_linear_62_819)"/>
<path d="M1007 102.5V1.5C1007 0.671573 1006.33 0 1005.5 0C1004.67 0 1004 0.671572 1004 1.5V102.5C1004 103.328 1004.67 104 1005.5 104C1006.33 104 1007 103.328 1007 102.5Z" fill="url(#paint38_linear_62_819)"/>
<path d="M977 105.5V1.5C977 0.671573 976.328 0 975.5 0C974.672 0 974 0.671575 974 1.5V105.5C974 106.328 974.672 107 975.5 107C976.328 107 977 106.328 977 105.5Z" fill="url(#paint39_linear_62_819)"/>
<path d="M946 110.5V1.5C946 0.671573 945.328 0 944.5 0C943.672 0 943 0.671574 943 1.5V110.5C943 111.328 943.672 112 944.5 112C945.328 112 946 111.328 946 110.5Z" fill="url(#paint40_linear_62_819)"/>
<path d="M916 116.5V1.5C916 0.671573 915.328 0 914.5 0C913.672 0 913 0.671575 913 1.5V116.5C913 117.328 913.672 118 914.5 118C915.328 118 916 117.328 916 116.5Z" fill="url(#paint41_linear_62_819)"/>
<path d="M886 125.5V1.5C886 0.671573 885.328 0 884.5 0C883.672 0 883 0.671572 883 1.5V125.5C883 126.328 883.672 127 884.5 127C885.328 127 886 126.328 886 125.5Z" fill="url(#paint42_linear_62_819)"/>
<path d="M855 133.5V1.5C855 0.671573 854.328 0 853.5 0C852.672 0 852 0.671577 852 1.5V133.5C852 134.328 852.672 135 853.5 135C854.328 135 855 134.328 855 133.5Z" fill="url(#paint43_linear_62_819)"/>
<path d="M825 141.5V1.5C825 0.671573 824.328 0 823.5 0C822.672 0 822 0.671575 822 1.5V141.5C822 142.328 822.672 143 823.5 143C824.328 143 825 142.328 825 141.5Z" fill="url(#paint44_linear_62_819)"/>
<path d="M794 149.5V1.5C794 0.671573 793.328 0 792.5 0C791.672 0 791 0.671572 791 1.5V149.5C791 150.328 791.672 151 792.5 151C793.328 151 794 150.328 794 149.5Z" fill="url(#paint45_linear_62_819)"/>
<path d="M764 156.5V1.5C764 0.671573 763.328 0 762.5 0C761.672 0 761 0.671569 761 1.5V156.5C761 157.328 761.672 158 762.5 158C763.328 158 764 157.328 764 156.5Z" fill="url(#paint46_linear_62_819)"/>
<path d="M733 160.5V1.5C733 0.671573 732.328 0 731.5 0C730.672 0 730 0.671577 730 1.5V160.5C730 161.328 730.672 162 731.5 162C732.328 162 733 161.328 733 160.5Z" fill="url(#paint47_linear_62_819)"/>
<path d="M703 160.5V1.5C703 0.671573 702.328 0 701.5 0C700.672 0 700 0.671577 700 1.5V160.5C700 161.328 700.672 162 701.5 162C702.328 162 703 161.328 703 160.5Z" fill="url(#paint48_linear_62_819)"/>
<path d="M673 157.5V1.5C673 0.671573 672.328 0 671.5 0C670.672 0 670 0.671576 670 1.5V157.5C670 158.328 670.672 159 671.5 159C672.328 159 673 158.328 673 157.5Z" fill="url(#paint49_linear_62_819)"/>
<path d="M642 150.5V1.5C642 0.671573 641.328 0 640.5 0C639.672 0 639 0.671576 639 1.5V150.5C639 151.328 639.672 152 640.5 152C641.328 152 642 151.328 642 150.5Z" fill="url(#paint50_linear_62_819)"/>
<path d="M612 139.5V1.5C612 0.671573 611.328 0 610.5 0C609.672 0 609 0.671573 609 1.5V139.5C609 140.328 609.672 141 610.5 141C611.328 141 612 140.328 612 139.5Z" fill="url(#paint51_linear_62_819)"/>
<path d="M581 126.5V1.5C581 0.671573 580.328 0 579.5 0C578.672 0 578 0.671573 578 1.5V126.5C578 127.328 578.672 128 579.5 128C580.328 128 581 127.328 581 126.5Z" fill="url(#paint52_linear_62_819)"/>
<path d="M551 112.5V1.5C551 0.671573 550.328 0 549.5 0C548.672 0 548 0.671574 548 1.5V112.5C548 113.328 548.672 114 549.5 114C550.328 114 551 113.328 551 112.5Z" fill="url(#paint53_linear_62_819)"/>
<path d="M520 99.5V1.5C520 0.671573 519.328 0 518.5 0C517.672 0 517 0.671575 517 1.5V99.5C517 100.328 517.672 101 518.5 101C519.328 101 520 100.328 520 99.5Z" fill="url(#paint54_linear_62_819)"/>
<path d="M490 89.5V1.5C490 0.671573 489.328 0 488.5 0C487.672 0 487 0.671575 487 1.5V89.5C487 90.3284 487.672 91 488.5 91C489.328 91 490 90.3284 490 89.5Z" fill="url(#paint55_linear_62_819)"/>
<path d="M459 84.5V1.5C459 0.671573 458.328 0 457.5 0C456.672 0 456 0.671574 456 1.5V84.5C456 85.3284 456.672 86 457.5 86C458.328 86 459 85.3284 459 84.5Z" fill="url(#paint56_linear_62_819)"/>
<path d="M429 82.5V1.5C429 0.671573 428.328 0 427.5 0C426.672 0 426 0.671572 426 1.5V82.5C426 83.3284 426.672 84 427.5 84C428.328 84 429 83.3284 429 82.5Z" fill="url(#paint57_linear_62_819)"/>
<path d="M399 84.5V1.5C399 0.671573 398.328 0 397.5 0C396.672 0 396 0.671574 396 1.5V84.5C396 85.3284 396.672 86 397.5 86C398.328 86 399 85.3284 399 84.5Z" fill="url(#paint58_linear_62_819)"/>
<path d="M368 92.5V1.5C368 0.671573 367.328 0 366.5 0C365.672 0 365 0.671575 365 1.5V92.5C365 93.3284 365.672 94 366.5 94C367.328 94 368 93.3284 368 92.5Z" fill="url(#paint59_linear_62_819)"/>
<path d="M338 106.5V1.5C338 0.671573 337.328 0 336.5 0C335.672 0 335 0.671574 335 1.5V106.5C335 107.328 335.672 108 336.5 108C337.328 108 338 107.328 338 106.5Z" fill="url(#paint60_linear_62_819)"/>
<path d="M307 125.5V1.5C307 0.671573 306.328 0 305.5 0C304.672 0 304 0.671572 304 1.5V125.5C304 126.328 304.672 127 305.5 127C306.328 127 307 126.328 307 125.5Z" fill="url(#paint61_linear_62_819)"/>
<path d="M277 146.5V1.5C277 0.671573 276.328 0 275.5 0C274.672 0 274 0.67157 274 1.5V146.5C274 147.328 274.672 148 275.5 148C276.328 148 277 147.328 277 146.5Z" fill="url(#paint62_linear_62_819)"/>
<path d="M246 157.5V1.5C246 0.671573 245.328 0 244.5 0C243.672 0 243 0.671576 243 1.5V157.5C243 158.328 243.672 159 244.5 159C245.328 159 246 158.328 246 157.5Z" fill="url(#paint63_linear_62_819)"/>
<path d="M216 158.5V1.5C216 0.671573 215.328 0 214.5 0C213.672 0 213 0.671569 213 1.5V158.5C213 159.328 213.672 160 214.5 160C215.328 160 216 159.328 216 158.5Z" fill="url(#paint64_linear_62_819)"/>
<path d="M186 152.5V1.5C186 0.671573 185.328 0 184.5 0C183.672 0 183 0.671569 183 1.5V152.5C183 153.328 183.672 154 184.5 154C185.328 154 186 153.328 186 152.5Z" fill="url(#paint65_linear_62_819)"/>
<path d="M155 138.5V1.5C155 0.671573 154.328 0 153.5 0C152.672 0 152 0.671574 152 1.5V138.5C152 139.328 152.672 140 153.5 140C154.328 140 155 139.328 155 138.5Z" fill="url(#paint66_linear_62_819)"/>
<path d="M125 124.5V1.5C125 0.671573 124.328 0 123.5 0C122.672 0 122 0.671575 122 1.5V124.5C122 125.328 122.672 126 123.5 126C124.328 126 125 125.328 125 124.5Z" fill="url(#paint67_linear_62_819)"/>
<path d="M94 115.5V1.5C94 0.671573 93.3284 0 92.5 0C91.6716 0 91 0.671569 91 1.5V115.5C91 116.328 91.6716 117 92.5 117C93.3284 117 94 116.328 94 115.5Z" fill="url(#paint68_linear_62_819)"/>
<path d="M64 113.5V1.5C64 0.671573 63.3284 0 62.5 0C61.6716 0 61 0.671571 61 1.5V113.5C61 114.328 61.6716 115 62.5 115C63.3284 115 64 114.328 64 113.5Z" fill="url(#paint69_linear_62_819)"/>
<path d="M33 116.5V1.5C33 0.671573 32.3284 0 31.5 0C30.6716 0 30 0.671575 30 1.5V116.5C30 117.328 30.6716 118 31.5 118C32.3284 118 33 117.328 33 116.5Z" fill="url(#paint70_linear_62_819)"/>
<path d="M3 124.5V1.5C3 0.671573 2.32843 0 1.5 0C0.671573 0 0 0.671575 0 1.5V124.5C0 125.328 0.671573 126 1.5 126C2.32843 126 3 125.328 3 124.5Z" fill="url(#paint71_linear_62_819)"/>
<path d="M1068 296.5V261.5C1068 260.672 1067.33 260 1066.5 260C1065.67 260 1065 260.672 1065 261.5V296.5C1065 297.328 1065.67 298 1066.5 298C1067.33 298 1068 297.328 1068 296.5Z" fill="url(#paint72_linear_62_819)"/>
<path d="M1038 296.5V262.5C1038 261.672 1037.33 261 1036.5 261C1035.67 261 1035 261.672 1035 262.5V296.5C1035 297.328 1035.67 298 1036.5 298C1037.33 298 1038 297.328 1038 296.5Z" fill="url(#paint73_linear_62_819)"/>
<path d="M1007 296.5V262.5C1007 261.672 1006.33 261 1005.5 261C1004.67 261 1004 261.672 1004 262.5V296.5C1004 297.328 1004.67 298 1005.5 298C1006.33 298 1007 297.328 1007 296.5Z" fill="url(#paint74_linear_62_819)"/>
<path d="M977 299.5V259.5C977 258.672 976.328 258 975.5 258C974.672 258 974 258.672 974 259.5V299.5C974 300.328 974.672 301 975.5 301C976.328 301 977 300.328 977 299.5Z" fill="url(#paint75_linear_62_819)"/>
<path d="M946 302.5V255.5C946 254.672 945.328 254 944.5 254C943.672 254 943 254.672 943 255.5V302.5C943 303.328 943.672 304 944.5 304C945.328 304 946 303.328 946 302.5Z" fill="url(#paint76_linear_62_819)"/>
<path d="M916 305.5V249.5C916 248.672 915.328 248 914.5 248C913.672 248 913 248.672 913 249.5V305.5C913 306.328 913.672 307 914.5 307C915.328 307 916 306.328 916 305.5Z" fill="url(#paint77_linear_62_819)"/>
<path d="M886 310.5V242.5C886 241.672 885.328 241 884.5 241C883.672 241 883 241.672 883 242.5V310.5C883 311.328 883.672 312 884.5 312C885.328 312 886 311.328 886 310.5Z" fill="url(#paint78_linear_62_819)"/>
<path d="M855 315.5V234.5C855 233.672 854.328 233 853.5 233C852.672 233 852 233.672 852 234.5V315.5C852 316.328 852.672 317 853.5 317C854.328 317 855 316.328 855 315.5Z" fill="url(#paint79_linear_62_819)"/>
<path d="M825 321.5V226.5C825 225.672 824.328 225 823.5 225C822.672 225 822 225.672 822 226.5V321.5C822 322.328 822.672 323 823.5 323C824.328 323 825 322.328 825 321.5Z" fill="url(#paint80_linear_62_819)"/>
<path d="M794 328.5V220.5C794 219.672 793.328 219 792.5 219C791.672 219 791 219.672 791 220.5V328.5C791 329.328 791.672 330 792.5 330C793.328 330 794 329.328 794 328.5Z" fill="url(#paint81_linear_62_819)"/>
<path d="M764 337.5V217.5C764 216.672 763.328 216 762.5 216C761.672 216 761 216.672 761 217.5V337.5C761 338.328 761.672 339 762.5 339C763.328 339 764 338.328 764 337.5Z" fill="url(#paint82_linear_62_819)"/>
<path d="M733 347.5V216.5C733 215.672 732.328 215 731.5 215C730.672 215 730 215.672 730 216.5V347.5C730 348.328 730.672 349 731.5 349C732.328 349 733 348.328 733 347.5Z" fill="url(#paint83_linear_62_819)"/>
<path d="M703 360.5V217.5C703 216.672 702.328 216 701.5 216C700.672 216 700 216.672 700 217.5V360.5C700 361.328 700.672 362 701.5 362C702.328 362 703 361.328 703 360.5Z" fill="url(#paint84_linear_62_819)"/>
<path d="M673 371.5V218.5C673 217.672 672.328 217 671.5 217C670.672 217 670 217.672 670 218.5V371.5C670 372.328 670.672 373 671.5 373C672.328 373 673 372.328 673 371.5Z" fill="url(#paint85_linear_62_819)"/>
<path d="M642 379.5V221.5C642 220.672 641.328 220 640.5 220C639.672 220 639 220.672 639 221.5V379.5C639 380.328 639.672 381 640.5 381C641.328 381 642 380.328 642 379.5Z" fill="url(#paint86_linear_62_819)"/>
<path d="M612 383.5V226.5C612 225.672 611.328 225 610.5 225C609.672 225 609 225.672 609 226.5V383.5C609 384.328 609.672 385 610.5 385C611.328 385 612 384.328 612 383.5Z" fill="url(#paint87_linear_62_819)"/>
<path d="M581 385.5V233.5C581 232.672 580.328 232 579.5 232C578.672 232 578 232.672 578 233.5V385.5C578 386.328 578.672 387 579.5 387C580.328 387 581 386.328 581 385.5Z" fill="url(#paint88_linear_62_819)"/>
<path d="M551 385.5V241.5C551 240.672 550.328 240 549.5 240C548.672 240 548 240.672 548 241.5V385.5C548 386.328 548.672 387 549.5 387C550.328 387 551 386.328 551 385.5Z" fill="url(#paint89_linear_62_819)"/>
<path d="M520 380.5V251.5C520 250.672 519.328 250 518.5 250C517.672 250 517 250.672 517 251.5V380.5C517 381.328 517.672 382 518.5 382C519.328 382 520 381.328 520 380.5Z" fill="url(#paint90_linear_62_819)"/>
<path d="M490 373.5V262.5C490 261.672 489.328 261 488.5 261C487.672 261 487 261.672 487 262.5V373.5C487 374.328 487.672 375 488.5 375C489.328 375 490 374.328 490 373.5Z" fill="url(#paint91_linear_62_819)"/>
<path d="M459 364.5V273.5C459 272.672 458.328 272 457.5 272C456.672 272 456 272.672 456 273.5V364.5C456 365.328 456.672 366 457.5 366C458.328 366 459 365.328 459 364.5Z" fill="url(#paint92_linear_62_819)"/>
<path d="M429 358.5V282.5C429 281.672 428.328 281 427.5 281C426.672 281 426 281.672 426 282.5V358.5C426 359.328 426.672 360 427.5 360C428.328 360 429 359.328 429 358.5Z" fill="url(#paint93_linear_62_819)"/>
<path d="M399 355.5V290.5C399 289.672 398.328 289 397.5 289C396.672 289 396 289.672 396 290.5V355.5C396 356.328 396.672 357 397.5 357C398.328 357 399 356.328 399 355.5Z" fill="url(#paint94_linear_62_819)"/>
<path d="M368 356.5V295.5C368 294.672 367.328 294 366.5 294C365.672 294 365 294.672 365 295.5V356.5C365 357.328 365.672 358 366.5 358C367.328 358 368 357.328 368 356.5Z" fill="url(#paint95_linear_62_819)"/>
<path d="M338 357.5V297.5C338 296.672 337.328 296 336.5 296C335.672 296 335 296.672 335 297.5V357.5C335 358.328 335.672 359 336.5 359C337.328 359 338 358.328 338 357.5Z" fill="url(#paint96_linear_62_819)"/>
<path d="M307 359.5V296.5C307 295.672 306.328 295 305.5 295C304.672 295 304 295.672 304 296.5V359.5C304 360.328 304.672 361 305.5 361C306.328 361 307 360.328 307 359.5Z" fill="url(#paint97_linear_62_819)"/>
<path d="M277 359.5V293.5C277 292.672 276.328 292 275.5 292C274.672 292 274 292.672 274 293.5V359.5C274 360.328 274.672 361 275.5 361C276.328 361 277 360.328 277 359.5Z" fill="url(#paint98_linear_62_819)"/>
<path d="M246 356.5V287.5C246 286.672 245.328 286 244.5 286C243.672 286 243 286.672 243 287.5V356.5C243 357.328 243.672 358 244.5 358C245.328 358 246 357.328 246 356.5Z" fill="url(#paint99_linear_62_819)"/>
<path d="M216 348.5V278.5C216 277.672 215.328 277 214.5 277C213.672 277 213 277.672 213 278.5V348.5C213 349.328 213.672 350 214.5 350C215.328 350 216 349.328 216 348.5Z" fill="url(#paint100_linear_62_819)"/>
<path d="M186 334.5V267.5C186 266.672 185.328 266 184.5 266C183.672 266 183 266.672 183 267.5V334.5C183 335.328 183.672 336 184.5 336C185.328 336 186 335.328 186 334.5Z" fill="url(#paint101_linear_62_819)"/>
<path d="M155 321.5V257.5C155 256.672 154.328 256 153.5 256C152.672 256 152 256.672 152 257.5V321.5C152 322.328 152.672 323 153.5 323C154.328 323 155 322.328 155 321.5Z" fill="url(#paint102_linear_62_819)"/>
<path d="M125 313.5V247.5C125 246.672 124.328 246 123.5 246C122.672 246 122 246.672 122 247.5V313.5C122 314.328 122.672 315 123.5 315C124.328 315 125 314.328 125 313.5Z" fill="url(#paint103_linear_62_819)"/>
<path d="M94 308.5V241.5C94 240.672 93.3284 240 92.5 240C91.6716 240 91 240.672 91 241.5V308.5C91 309.328 91.6716 310 92.5 310C93.3284 310 94 309.328 94 308.5Z" fill="url(#paint104_linear_62_819)"/>
<path d="M64 307.5V238.5C64 237.672 63.3284 237 62.5 237C61.6716 237 61 237.672 61 238.5V307.5C61 308.328 61.6716 309 62.5 309C63.3284 309 64 308.328 64 307.5Z" fill="url(#paint105_linear_62_819)"/>
<path d="M33 308.5V237.5C33 236.672 32.3284 236 31.5 236C30.6716 236 30 236.672 30 237.5V308.5C30 309.328 30.6716 310 31.5 310C32.3284 310 33 309.328 33 308.5Z" fill="url(#paint106_linear_62_819)"/>
<path d="M3 310.5V239.5C3 238.672 2.32843 238 1.5 238C0.671573 238 0 238.672 0 239.5V310.5C0 311.328 0.671573 312 1.5 312C2.32843 312 3 311.328 3 310.5Z" fill="url(#paint107_linear_62_819)"/>
<defs>
<linearGradient id="paint0_linear_62_819" x1="1066.5" y1="97.1018" x2="1066.5" y2="233.805" gradientUnits="userSpaceOnUse">
<stop stop-color="#003AAD"/>
<stop offset="0.504808" stop-color="#0D2578"/>
<stop offset="1" stop-color="#111143"/>
</linearGradient>
<linearGradient id="paint1_linear_62_819" x1="1036.5" y1="99.0965" x2="1036.5" y2="238.815" gradientUnits="userSpaceOnUse">
<stop stop-color="#003AAD"/>
<stop offset="0.504808" stop-color="#0D2578"/>
<stop offset="1" stop-color="#111143"/>
</linearGradient>
<linearGradient id="paint2_linear_62_819" x1="1005.5" y1="104.102" x2="1005.5" y2="242.815" gradientUnits="userSpaceOnUse">
<stop stop-color="#003AAD"/>
<stop offset="0.504808" stop-color="#0D2578"/>
<stop offset="1" stop-color="#111143"/>
</linearGradient>
<linearGradient id="paint3_linear_62_819" x1="975.5" y1="106.112" x2="975.5" y2="241.81" gradientUnits="userSpaceOnUse">
<stop stop-color="#003AAD"/>
<stop offset="0.504808" stop-color="#0D2578"/>
<stop offset="1" stop-color="#111143"/>
</linearGradient>
<linearGradient id="paint4_linear_62_819" x1="944.5" y1="110.133" x2="944.5" y2="237.789" gradientUnits="userSpaceOnUse">
<stop stop-color="#003AAD"/>
<stop offset="0.504808" stop-color="#0D2578"/>
<stop offset="1" stop-color="#111143"/>
</linearGradient>
<linearGradient id="paint5_linear_62_819" x1="914.5" y1="116.164" x2="914.5" y2="232.763" gradientUnits="userSpaceOnUse">
<stop stop-color="#003AAD"/>
<stop offset="0.504808" stop-color="#0D2578"/>
<stop offset="1" stop-color="#111143"/>
</linearGradient>
<linearGradient id="paint6_linear_62_819" x1="884.5" y1="123.2" x2="884.5" y2="225.727" gradientUnits="userSpaceOnUse">
<stop stop-color="#003AAD"/>
<stop offset="0.504808" stop-color="#0D2578"/>
<stop offset="1" stop-color="#111143"/>
</linearGradient>
<linearGradient id="paint7_linear_62_819" x1="853.5" y1="132.246" x2="853.5" y2="218.691" gradientUnits="userSpaceOnUse">
<stop stop-color="#003AAD"/>
<stop offset="0.504808" stop-color="#0D2578"/>
<stop offset="1" stop-color="#111143"/>
</linearGradient>
<linearGradient id="paint8_linear_62_819" x1="823.5" y1="140.288" x2="823.5" y2="210.65" gradientUnits="userSpaceOnUse">
<stop stop-color="#003AAD"/>
<stop offset="0.504808" stop-color="#0D2578"/>
<stop offset="1" stop-color="#111143"/>
</linearGradient>
<linearGradient id="paint9_linear_62_819" x1="792.5" y1="148.329" x2="792.5" y2="203.613" gradientUnits="userSpaceOnUse">
<stop stop-color="#003AAD"/>
<stop offset="0.504808" stop-color="#0D2578"/>
<stop offset="1" stop-color="#111143"/>
</linearGradient>
<linearGradient id="paint10_linear_62_819" x1="762.5" y1="156.37" x2="762.5" y2="199.593" gradientUnits="userSpaceOnUse">
<stop stop-color="#003AAD"/>
<stop offset="0.504808" stop-color="#0D2578"/>
<stop offset="1" stop-color="#111143"/>
</linearGradient>
<linearGradient id="paint11_linear_62_819" x1="731.5" y1="161.397" x2="731.5" y2="197.583" gradientUnits="userSpaceOnUse">
<stop stop-color="#003AAD"/>
<stop offset="0.504808" stop-color="#0D2578"/>
<stop offset="1" stop-color="#111143"/>
</linearGradient>
<linearGradient id="paint12_linear_62_819" x1="701.5" y1="161.412" x2="701.5" y2="193.578" gradientUnits="userSpaceOnUse">
<stop stop-color="#003AAD"/>
<stop offset="0.504808" stop-color="#0D2578"/>
<stop offset="1" stop-color="#111143"/>
</linearGradient>
<linearGradient id="paint13_linear_62_819" x1="671.5" y1="155.402" x2="671.5" y2="190.582" gradientUnits="userSpaceOnUse">
<stop stop-color="#003AAD"/>
<stop offset="0.504808" stop-color="#0D2578"/>
<stop offset="1" stop-color="#111143"/>
</linearGradient>
<linearGradient id="paint14_linear_62_819" x1="640.5" y1="149.376" x2="640.5" y2="192.598" gradientUnits="userSpaceOnUse">
<stop stop-color="#003AAD"/>
<stop offset="0.504808" stop-color="#0D2578"/>
<stop offset="1" stop-color="#111143"/>
</linearGradient>
<linearGradient id="paint15_linear_62_819" x1="610.5" y1="139.329" x2="610.5" y2="195.619" gradientUnits="userSpaceOnUse">
<stop stop-color="#003AAD"/>
<stop offset="0.504808" stop-color="#0D2578"/>
<stop offset="1" stop-color="#111143"/>
</linearGradient>
<linearGradient id="paint16_linear_62_819" x1="579.5" y1="127.267" x2="579.5" y2="200.644" gradientUnits="userSpaceOnUse">
<stop stop-color="#003AAD"/>
<stop offset="0.504808" stop-color="#0D2578"/>
<stop offset="1" stop-color="#111143"/>
</linearGradient>
<linearGradient id="paint17_linear_62_819" x1="549.5" y1="112.195" x2="549.5" y2="207.686" gradientUnits="userSpaceOnUse">
<stop stop-color="#003AAD"/>
<stop offset="0.504808" stop-color="#0D2578"/>
<stop offset="1" stop-color="#111143"/>
</linearGradient>
<linearGradient id="paint18_linear_62_819" x1="518.5" y1="99.122" x2="518.5" y2="217.732" gradientUnits="userSpaceOnUse">
<stop stop-color="#003AAD"/>
<stop offset="0.504808" stop-color="#0D2578"/>
<stop offset="1" stop-color="#111143"/>
</linearGradient>
<linearGradient id="paint19_linear_62_819" x1="488.5" y1="90.0653" x2="488.5" y2="230.789" gradientUnits="userSpaceOnUse">
<stop stop-color="#003AAD"/>
<stop offset="0.504808" stop-color="#0D2578"/>
<stop offset="1" stop-color="#111143"/>
</linearGradient>
<linearGradient id="paint20_linear_62_819" x1="457.5" y1="82.0242" x2="457.5" y2="241.846" gradientUnits="userSpaceOnUse">
<stop stop-color="#003AAD"/>
<stop offset="0.504808" stop-color="#0D2578"/>
<stop offset="1" stop-color="#111143"/>
</linearGradient>
<linearGradient id="paint21_linear_62_819" x1="427.5" y1="82.0035" x2="427.5" y2="255.898" gradientUnits="userSpaceOnUse">
<stop stop-color="#003AAD"/>
<stop offset="0.504808" stop-color="#0D2578"/>
<stop offset="1" stop-color="#111143"/>
</linearGradient>
<linearGradient id="paint22_linear_62_819" x1="397.5" y1="85.0036" x2="397.5" y2="266.939" gradientUnits="userSpaceOnUse">
<stop stop-color="#003AAD"/>
<stop offset="0.504808" stop-color="#0D2578"/>
<stop offset="1" stop-color="#111143"/>
</linearGradient>
<linearGradient id="paint23_linear_62_819" x1="366.5" y1="90.0295" x2="366.5" y2="273.975" gradientUnits="userSpaceOnUse">
<stop stop-color="#003AAD"/>
<stop offset="0.504808" stop-color="#0D2578"/>
<stop offset="1" stop-color="#111143"/>
</linearGradient>
<linearGradient id="paint24_linear_62_819" x1="336.5" y1="101.087" x2="336.5" y2="276.991" gradientUnits="userSpaceOnUse">
<stop stop-color="#003AAD"/>
<stop offset="0.504808" stop-color="#0D2578"/>
<stop offset="1" stop-color="#111143"/>
</linearGradient>
<linearGradient id="paint25_linear_62_819" x1="305.5" y1="118.175" x2="305.5" y2="277.997" gradientUnits="userSpaceOnUse">
<stop stop-color="#003AAD"/>
<stop offset="0.504808" stop-color="#0D2578"/>
<stop offset="1" stop-color="#111143"/>
</linearGradient>
<linearGradient id="paint26_linear_62_819" x1="275.5" y1="139.284" x2="275.5" y2="275.987" gradientUnits="userSpaceOnUse">
<stop stop-color="#003AAD"/>
<stop offset="0.504808" stop-color="#0D2578"/>
<stop offset="1" stop-color="#111143"/>
</linearGradient>
<linearGradient id="paint27_linear_62_819" x1="244.5" y1="156.372" x2="244.5" y2="270.961" gradientUnits="userSpaceOnUse">
<stop stop-color="#003AAD"/>
<stop offset="0.504808" stop-color="#0D2578"/>
<stop offset="1" stop-color="#111143"/>
</linearGradient>
<linearGradient id="paint28_linear_62_819" x1="214.5" y1="157.398" x2="214.5" y2="259.925" gradientUnits="userSpaceOnUse">
<stop stop-color="#003AAD"/>
<stop offset="0.504808" stop-color="#0D2578"/>
<stop offset="1" stop-color="#111143"/>
</linearGradient>
<linearGradient id="paint29_linear_62_819" x1="184.5" y1="150.387" x2="184.5" y2="244.873" gradientUnits="userSpaceOnUse">
<stop stop-color="#003AAD"/>
<stop offset="0.504808" stop-color="#0D2578"/>
<stop offset="1" stop-color="#111143"/>
</linearGradient>
<linearGradient id="paint30_linear_62_819" x1="153.5" y1="136.335" x2="153.5" y2="229.816" gradientUnits="userSpaceOnUse">
<stop stop-color="#003AAD"/>
<stop offset="0.504808" stop-color="#0D2578"/>
<stop offset="1" stop-color="#111143"/>
</linearGradient>
<linearGradient id="paint31_linear_62_819" x1="123.5" y1="123.257" x2="123.5" y2="221.764" gradientUnits="userSpaceOnUse">
<stop stop-color="#003AAD"/>
<stop offset="0.504808" stop-color="#0D2578"/>
<stop offset="1" stop-color="#111143"/>
</linearGradient>
<linearGradient id="paint32_linear_62_819" x1="92.5" y1="115.19" x2="92.5" y2="218.722" gradientUnits="userSpaceOnUse">
<stop stop-color="#003AAD"/>
<stop offset="0.504808" stop-color="#0D2578"/>
<stop offset="1" stop-color="#111143"/>
</linearGradient>
<linearGradient id="paint33_linear_62_819" x1="62.5" y1="112.164" x2="62.5" y2="215.696" gradientUnits="userSpaceOnUse">
<stop stop-color="#003AAD"/>
<stop offset="0.504808" stop-color="#0D2578"/>
<stop offset="1" stop-color="#111143"/>
</linearGradient>
<linearGradient id="paint34_linear_62_819" x1="31.5" y1="117.169" x2="31.5" y2="217.685" gradientUnits="userSpaceOnUse">
<stop stop-color="#003AAD"/>
<stop offset="0.504808" stop-color="#0D2578"/>
<stop offset="1" stop-color="#111143"/>
</linearGradient>
<linearGradient id="paint35_linear_62_819" x1="1.49999" y1="123.2" x2="1.49999" y2="218.691" gradientUnits="userSpaceOnUse">
<stop stop-color="#003AAD"/>
<stop offset="0.504808" stop-color="#0D2578"/>
<stop offset="1" stop-color="#111143"/>
</linearGradient>
<linearGradient id="paint36_linear_62_819" x1="1066.5" y1="102.002" x2="1066.5" y2="0.00203061" gradientUnits="userSpaceOnUse">
<stop stop-color="#003AAD"/>
<stop offset="0.504808" stop-color="#0D2578"/>
<stop offset="1" stop-color="#111143"/>
</linearGradient>
<linearGradient id="paint37_linear_62_819" x1="1036.5" y1="103.002" x2="1036.5" y2="0.00205052" gradientUnits="userSpaceOnUse">
<stop stop-color="#003AAD"/>
<stop offset="0.504808" stop-color="#0D2578"/>
<stop offset="1" stop-color="#111143"/>
</linearGradient>
<linearGradient id="paint38_linear_62_819" x1="1005.5" y1="104.002" x2="1005.5" y2="0.00207043" gradientUnits="userSpaceOnUse">
<stop stop-color="#003AAD"/>
<stop offset="0.504808" stop-color="#0D2578"/>
<stop offset="1" stop-color="#111143"/>
</linearGradient>
<linearGradient id="paint39_linear_62_819" x1="975.499" y1="107.002" x2="975.499" y2="0.00213015" gradientUnits="userSpaceOnUse">
<stop stop-color="#003AAD"/>
<stop offset="0.504808" stop-color="#0D2578"/>
<stop offset="1" stop-color="#111143"/>
</linearGradient>
<linearGradient id="paint40_linear_62_819" x1="944.499" y1="112.002" x2="944.499" y2="0.00222969" gradientUnits="userSpaceOnUse">
<stop stop-color="#003AAD"/>
<stop offset="0.504808" stop-color="#0D2578"/>
<stop offset="1" stop-color="#111143"/>
</linearGradient>
<linearGradient id="paint41_linear_62_819" x1="914.499" y1="118.002" x2="914.499" y2="0.00234914" gradientUnits="userSpaceOnUse">
<stop stop-color="#003AAD"/>
<stop offset="0.504808" stop-color="#0D2578"/>
<stop offset="1" stop-color="#111143"/>
</linearGradient>
<linearGradient id="paint42_linear_62_819" x1="884.499" y1="127.003" x2="884.499" y2="0.00252831" gradientUnits="userSpaceOnUse">
<stop stop-color="#003AAD"/>
<stop offset="0.504808" stop-color="#0D2578"/>
<stop offset="1" stop-color="#111143"/>
</linearGradient>
<linearGradient id="paint43_linear_62_819" x1="853.499" y1="135.003" x2="853.499" y2="0.00268757" gradientUnits="userSpaceOnUse">
<stop stop-color="#003AAD"/>
<stop offset="0.504808" stop-color="#0D2578"/>
<stop offset="1" stop-color="#111143"/>
</linearGradient>
<linearGradient id="paint44_linear_62_819" x1="823.499" y1="143.003" x2="823.499" y2="0.00284684" gradientUnits="userSpaceOnUse">
<stop stop-color="#003AAD"/>
<stop offset="0.504808" stop-color="#0D2578"/>
<stop offset="1" stop-color="#111143"/>
</linearGradient>
<linearGradient id="paint45_linear_62_819" x1="792.499" y1="151.003" x2="792.499" y2="0.0030061" gradientUnits="userSpaceOnUse">
<stop stop-color="#003AAD"/>
<stop offset="0.504808" stop-color="#0D2578"/>
<stop offset="1" stop-color="#111143"/>
</linearGradient>
<linearGradient id="paint46_linear_62_819" x1="762.499" y1="158.003" x2="762.499" y2="0.00314546" gradientUnits="userSpaceOnUse">
<stop stop-color="#003AAD"/>
<stop offset="0.504808" stop-color="#0D2578"/>
<stop offset="1" stop-color="#111143"/>
</linearGradient>
<linearGradient id="paint47_linear_62_819" x1="731.499" y1="162.003" x2="731.499" y2="0.00322509" gradientUnits="userSpaceOnUse">
<stop stop-color="#003AAD"/>
<stop offset="0.504808" stop-color="#0D2578"/>
<stop offset="1" stop-color="#111143"/>
</linearGradient>
<linearGradient id="paint48_linear_62_819" x1="701.499" y1="162.003" x2="701.499" y2="0.00322509" gradientUnits="userSpaceOnUse">
<stop stop-color="#003AAD"/>
<stop offset="0.504808" stop-color="#0D2578"/>
<stop offset="1" stop-color="#111143"/>
</linearGradient>
<linearGradient id="paint49_linear_62_819" x1="671.499" y1="159.003" x2="671.499" y2="0.00316536" gradientUnits="userSpaceOnUse">
<stop stop-color="#003AAD"/>
<stop offset="0.504808" stop-color="#0D2578"/>
<stop offset="1" stop-color="#111143"/>
</linearGradient>
<linearGradient id="paint50_linear_62_819" x1="640.499" y1="152.003" x2="640.499" y2="0.00302601" gradientUnits="userSpaceOnUse">
<stop stop-color="#003AAD"/>
<stop offset="0.504808" stop-color="#0D2578"/>
<stop offset="1" stop-color="#111143"/>
</linearGradient>
<linearGradient id="paint51_linear_62_819" x1="610.499" y1="141.003" x2="610.499" y2="0.00280702" gradientUnits="userSpaceOnUse">
<stop stop-color="#003AAD"/>
<stop offset="0.504808" stop-color="#0D2578"/>
<stop offset="1" stop-color="#111143"/>
</linearGradient>
<linearGradient id="paint52_linear_62_819" x1="579.499" y1="128.003" x2="579.499" y2="0.00254822" gradientUnits="userSpaceOnUse">
<stop stop-color="#003AAD"/>
<stop offset="0.504808" stop-color="#0D2578"/>
<stop offset="1" stop-color="#111143"/>
</linearGradient>
<linearGradient id="paint53_linear_62_819" x1="549.499" y1="114.002" x2="549.499" y2="0.00226951" gradientUnits="userSpaceOnUse">
<stop stop-color="#003AAD"/>
<stop offset="0.504808" stop-color="#0D2578"/>
<stop offset="1" stop-color="#111143"/>
</linearGradient>
<linearGradient id="paint54_linear_62_819" x1="518.499" y1="101.002" x2="518.499" y2="0.0020107" gradientUnits="userSpaceOnUse">
<stop stop-color="#003AAD"/>
<stop offset="0.504808" stop-color="#0D2578"/>
<stop offset="1" stop-color="#111143"/>
</linearGradient>
<linearGradient id="paint55_linear_62_819" x1="488.499" y1="91.0018" x2="488.499" y2="0.00181162" gradientUnits="userSpaceOnUse">
<stop stop-color="#003AAD"/>
<stop offset="0.504808" stop-color="#0D2578"/>
<stop offset="1" stop-color="#111143"/>
</linearGradient>
<linearGradient id="paint56_linear_62_819" x1="457.499" y1="86.0017" x2="457.499" y2="0.00171208" gradientUnits="userSpaceOnUse">
<stop stop-color="#003AAD"/>
<stop offset="0.504808" stop-color="#0D2578"/>
<stop offset="1" stop-color="#111143"/>
</linearGradient>
<linearGradient id="paint57_linear_62_819" x1="427.499" y1="84.0017" x2="427.499" y2="0.00167227" gradientUnits="userSpaceOnUse">
<stop stop-color="#003AAD"/>
<stop offset="0.504808" stop-color="#0D2578"/>
<stop offset="1" stop-color="#111143"/>
</linearGradient>
<linearGradient id="paint58_linear_62_819" x1="397.499" y1="86.0017" x2="397.499" y2="0.00171208" gradientUnits="userSpaceOnUse">
<stop stop-color="#003AAD"/>
<stop offset="0.504808" stop-color="#0D2578"/>
<stop offset="1" stop-color="#111143"/>
</linearGradient>
<linearGradient id="paint59_linear_62_819" x1="366.499" y1="94.0019" x2="366.499" y2="0.00187135" gradientUnits="userSpaceOnUse">
<stop stop-color="#003AAD"/>
<stop offset="0.504808" stop-color="#0D2578"/>
<stop offset="1" stop-color="#111143"/>
</linearGradient>
<linearGradient id="paint60_linear_62_819" x1="336.499" y1="108.002" x2="336.499" y2="0.00215006" gradientUnits="userSpaceOnUse">
<stop stop-color="#003AAD"/>
<stop offset="0.504808" stop-color="#0D2578"/>
<stop offset="1" stop-color="#111143"/>
</linearGradient>
<linearGradient id="paint61_linear_62_819" x1="305.499" y1="127.003" x2="305.499" y2="0.00252831" gradientUnits="userSpaceOnUse">
<stop stop-color="#003AAD"/>
<stop offset="0.504808" stop-color="#0D2578"/>
<stop offset="1" stop-color="#111143"/>
</linearGradient>
<linearGradient id="paint62_linear_62_819" x1="275.499" y1="148.003" x2="275.499" y2="0.00294638" gradientUnits="userSpaceOnUse">
<stop stop-color="#003AAD"/>
<stop offset="0.504808" stop-color="#0D2578"/>
<stop offset="1" stop-color="#111143"/>
</linearGradient>
<linearGradient id="paint63_linear_62_819" x1="244.499" y1="159.003" x2="244.499" y2="0.00316536" gradientUnits="userSpaceOnUse">
<stop stop-color="#003AAD"/>
<stop offset="0.504808" stop-color="#0D2578"/>
<stop offset="1" stop-color="#111143"/>
</linearGradient>
<linearGradient id="paint64_linear_62_819" x1="214.499" y1="160.003" x2="214.499" y2="0.00318527" gradientUnits="userSpaceOnUse">
<stop stop-color="#003AAD"/>
<stop offset="0.504808" stop-color="#0D2578"/>
<stop offset="1" stop-color="#111143"/>
</linearGradient>
<linearGradient id="paint65_linear_62_819" x1="184.499" y1="154.003" x2="184.499" y2="0.00306582" gradientUnits="userSpaceOnUse">
<stop stop-color="#003AAD"/>
<stop offset="0.504808" stop-color="#0D2578"/>
<stop offset="1" stop-color="#111143"/>
</linearGradient>
<linearGradient id="paint66_linear_62_819" x1="153.499" y1="140.003" x2="153.499" y2="0.00278711" gradientUnits="userSpaceOnUse">
<stop stop-color="#003AAD"/>
<stop offset="0.504808" stop-color="#0D2578"/>
<stop offset="1" stop-color="#111143"/>
</linearGradient>
<linearGradient id="paint67_linear_62_819" x1="123.499" y1="126.003" x2="123.499" y2="0.0025084" gradientUnits="userSpaceOnUse">
<stop stop-color="#003AAD"/>
<stop offset="0.504808" stop-color="#0D2578"/>
<stop offset="1" stop-color="#111143"/>
</linearGradient>
<linearGradient id="paint68_linear_62_819" x1="92.4986" y1="117.002" x2="92.4986" y2="0.00232923" gradientUnits="userSpaceOnUse">
<stop stop-color="#003AAD"/>
<stop offset="0.504808" stop-color="#0D2578"/>
<stop offset="1" stop-color="#111143"/>
</linearGradient>
<linearGradient id="paint69_linear_62_819" x1="62.4986" y1="115.002" x2="62.4986" y2="0.00228941" gradientUnits="userSpaceOnUse">
<stop stop-color="#003AAD"/>
<stop offset="0.504808" stop-color="#0D2578"/>
<stop offset="1" stop-color="#111143"/>
</linearGradient>
<linearGradient id="paint70_linear_62_819" x1="31.4986" y1="118.002" x2="31.4986" y2="0.00234914" gradientUnits="userSpaceOnUse">
<stop stop-color="#003AAD"/>
<stop offset="0.504808" stop-color="#0D2578"/>
<stop offset="1" stop-color="#111143"/>
</linearGradient>
<linearGradient id="paint71_linear_62_819" x1="1.49855" y1="126.003" x2="1.49855" y2="0.0025084" gradientUnits="userSpaceOnUse">
<stop stop-color="#003AAD"/>
<stop offset="0.504808" stop-color="#0D2578"/>
<stop offset="1" stop-color="#111143"/>
</linearGradient>
<linearGradient id="paint72_linear_62_819" x1="1066.5" y1="298.001" x2="1066.5" y2="260.001" gradientUnits="userSpaceOnUse">
<stop stop-color="#003AAD"/>
<stop offset="0.504808" stop-color="#0D2578"/>
<stop offset="1" stop-color="#111143"/>
</linearGradient>
<linearGradient id="paint73_linear_62_819" x1="1036.5" y1="298.001" x2="1036.5" y2="261.001" gradientUnits="userSpaceOnUse">
<stop stop-color="#003AAD"/>
<stop offset="0.504808" stop-color="#0D2578"/>
<stop offset="1" stop-color="#111143"/>
</linearGradient>
<linearGradient id="paint74_linear_62_819" x1="1005.5" y1="298.001" x2="1005.5" y2="261.001" gradientUnits="userSpaceOnUse">
<stop stop-color="#003AAD"/>
<stop offset="0.504808" stop-color="#0D2578"/>
<stop offset="1" stop-color="#111143"/>
</linearGradient>
<linearGradient id="paint75_linear_62_819" x1="975.499" y1="301.001" x2="975.499" y2="258.001" gradientUnits="userSpaceOnUse">
<stop stop-color="#003AAD"/>
<stop offset="0.504808" stop-color="#0D2578"/>
<stop offset="1" stop-color="#111143"/>
</linearGradient>
<linearGradient id="paint76_linear_62_819" x1="944.499" y1="304.001" x2="944.499" y2="254.001" gradientUnits="userSpaceOnUse">
<stop stop-color="#003AAD"/>
<stop offset="0.504808" stop-color="#0D2578"/>
<stop offset="1" stop-color="#111143"/>
</linearGradient>
<linearGradient id="paint77_linear_62_819" x1="914.499" y1="307.001" x2="914.499" y2="248.001" gradientUnits="userSpaceOnUse">
<stop stop-color="#003AAD"/>
<stop offset="0.504808" stop-color="#0D2578"/>
<stop offset="1" stop-color="#111143"/>
</linearGradient>
<linearGradient id="paint78_linear_62_819" x1="884.499" y1="312.001" x2="884.499" y2="241.001" gradientUnits="userSpaceOnUse">
<stop stop-color="#003AAD"/>
<stop offset="0.504808" stop-color="#0D2578"/>
<stop offset="1" stop-color="#111143"/>
</linearGradient>
<linearGradient id="paint79_linear_62_819" x1="853.499" y1="317.002" x2="853.499" y2="233.002" gradientUnits="userSpaceOnUse">
<stop stop-color="#003AAD"/>
<stop offset="0.504808" stop-color="#0D2578"/>
<stop offset="1" stop-color="#111143"/>
</linearGradient>
<linearGradient id="paint80_linear_62_819" x1="823.499" y1="323.002" x2="823.499" y2="225.002" gradientUnits="userSpaceOnUse">
<stop stop-color="#003AAD"/>
<stop offset="0.504808" stop-color="#0D2578"/>
<stop offset="1" stop-color="#111143"/>
</linearGradient>
<linearGradient id="paint81_linear_62_819" x1="792.499" y1="330.002" x2="792.499" y2="219.002" gradientUnits="userSpaceOnUse">
<stop stop-color="#003AAD"/>
<stop offset="0.504808" stop-color="#0D2578"/>
<stop offset="1" stop-color="#111143"/>
</linearGradient>
<linearGradient id="paint82_linear_62_819" x1="762.499" y1="339.002" x2="762.499" y2="216.002" gradientUnits="userSpaceOnUse">
<stop stop-color="#003AAD"/>
<stop offset="0.504808" stop-color="#0D2578"/>
<stop offset="1" stop-color="#111143"/>
</linearGradient>
<linearGradient id="paint83_linear_62_819" x1="731.499" y1="349.003" x2="731.499" y2="215.003" gradientUnits="userSpaceOnUse">
<stop stop-color="#003AAD"/>
<stop offset="0.504808" stop-color="#0D2578"/>
<stop offset="1" stop-color="#111143"/>
</linearGradient>
<linearGradient id="paint84_linear_62_819" x1="701.499" y1="362.003" x2="701.499" y2="216.003" gradientUnits="userSpaceOnUse">
<stop stop-color="#003AAD"/>
<stop offset="0.504808" stop-color="#0D2578"/>
<stop offset="1" stop-color="#111143"/>
</linearGradient>
<linearGradient id="paint85_linear_62_819" x1="671.499" y1="373.003" x2="671.499" y2="217.003" gradientUnits="userSpaceOnUse">
<stop stop-color="#003AAD"/>
<stop offset="0.504808" stop-color="#0D2578"/>
<stop offset="1" stop-color="#111143"/>
</linearGradient>
<linearGradient id="paint86_linear_62_819" x1="640.499" y1="381.003" x2="640.499" y2="220.003" gradientUnits="userSpaceOnUse">
<stop stop-color="#003AAD"/>
<stop offset="0.504808" stop-color="#0D2578"/>
<stop offset="1" stop-color="#111143"/>
</linearGradient>
<linearGradient id="paint87_linear_62_819" x1="610.499" y1="385.003" x2="610.499" y2="225.003" gradientUnits="userSpaceOnUse">
<stop stop-color="#003AAD"/>
<stop offset="0.504808" stop-color="#0D2578"/>
<stop offset="1" stop-color="#111143"/>
</linearGradient>
<linearGradient id="paint88_linear_62_819" x1="579.499" y1="387.003" x2="579.499" y2="232.003" gradientUnits="userSpaceOnUse">
<stop stop-color="#003AAD"/>
<stop offset="0.504808" stop-color="#0D2578"/>
<stop offset="1" stop-color="#111143"/>
</linearGradient>
<linearGradient id="paint89_linear_62_819" x1="549.499" y1="387.003" x2="549.499" y2="240.003" gradientUnits="userSpaceOnUse">
<stop stop-color="#003AAD"/>
<stop offset="0.504808" stop-color="#0D2578"/>
<stop offset="1" stop-color="#111143"/>
</linearGradient>
<linearGradient id="paint90_linear_62_819" x1="518.499" y1="382.003" x2="518.499" y2="250.003" gradientUnits="userSpaceOnUse">
<stop stop-color="#003AAD"/>
<stop offset="0.504808" stop-color="#0D2578"/>
<stop offset="1" stop-color="#111143"/>
</linearGradient>
<linearGradient id="paint91_linear_62_819" x1="488.499" y1="375.002" x2="488.499" y2="261.002" gradientUnits="userSpaceOnUse">
<stop stop-color="#003AAD"/>
<stop offset="0.504808" stop-color="#0D2578"/>
<stop offset="1" stop-color="#111143"/>
</linearGradient>
<linearGradient id="paint92_linear_62_819" x1="457.499" y1="366.002" x2="457.499" y2="272.002" gradientUnits="userSpaceOnUse">
<stop stop-color="#003AAD"/>
<stop offset="0.504808" stop-color="#0D2578"/>
<stop offset="1" stop-color="#111143"/>
</linearGradient>
<linearGradient id="paint93_linear_62_819" x1="427.499" y1="360.002" x2="427.499" y2="281.002" gradientUnits="userSpaceOnUse">
<stop stop-color="#003AAD"/>
<stop offset="0.504808" stop-color="#0D2578"/>
<stop offset="1" stop-color="#111143"/>
</linearGradient>
<linearGradient id="paint94_linear_62_819" x1="397.499" y1="357.001" x2="397.499" y2="289.001" gradientUnits="userSpaceOnUse">
<stop stop-color="#003AAD"/>
<stop offset="0.504808" stop-color="#0D2578"/>
<stop offset="1" stop-color="#111143"/>
</linearGradient>
<linearGradient id="paint95_linear_62_819" x1="366.499" y1="358.001" x2="366.499" y2="294.001" gradientUnits="userSpaceOnUse">
<stop stop-color="#003AAD"/>
<stop offset="0.504808" stop-color="#0D2578"/>
<stop offset="1" stop-color="#111143"/>
</linearGradient>
<linearGradient id="paint96_linear_62_819" x1="336.499" y1="359.001" x2="336.499" y2="296.001" gradientUnits="userSpaceOnUse">
<stop stop-color="#003AAD"/>
<stop offset="0.504808" stop-color="#0D2578"/>
<stop offset="1" stop-color="#111143"/>
</linearGradient>
<linearGradient id="paint97_linear_62_819" x1="305.499" y1="361.001" x2="305.499" y2="295.001" gradientUnits="userSpaceOnUse">
<stop stop-color="#003AAD"/>
<stop offset="0.504808" stop-color="#0D2578"/>
<stop offset="1" stop-color="#111143"/>
</linearGradient>
<linearGradient id="paint98_linear_62_819" x1="275.499" y1="361.001" x2="275.499" y2="292.001" gradientUnits="userSpaceOnUse">
<stop stop-color="#003AAD"/>
<stop offset="0.504808" stop-color="#0D2578"/>
<stop offset="1" stop-color="#111143"/>
</linearGradient>
<linearGradient id="paint99_linear_62_819" x1="244.499" y1="358.001" x2="244.499" y2="286.001" gradientUnits="userSpaceOnUse">
<stop stop-color="#003AAD"/>
<stop offset="0.504808" stop-color="#0D2578"/>
<stop offset="1" stop-color="#111143"/>
</linearGradient>
<linearGradient id="paint100_linear_62_819" x1="214.499" y1="350.001" x2="214.499" y2="277.001" gradientUnits="userSpaceOnUse">
<stop stop-color="#003AAD"/>
<stop offset="0.504808" stop-color="#0D2578"/>
<stop offset="1" stop-color="#111143"/>
</linearGradient>
<linearGradient id="paint101_linear_62_819" x1="184.499" y1="336.001" x2="184.499" y2="266.001" gradientUnits="userSpaceOnUse">
<stop stop-color="#003AAD"/>
<stop offset="0.504808" stop-color="#0D2578"/>
<stop offset="1" stop-color="#111143"/>
</linearGradient>
<linearGradient id="paint102_linear_62_819" x1="153.499" y1="323.001" x2="153.499" y2="256.001" gradientUnits="userSpaceOnUse">
<stop stop-color="#003AAD"/>
<stop offset="0.504808" stop-color="#0D2578"/>
<stop offset="1" stop-color="#111143"/>
</linearGradient>
<linearGradient id="paint103_linear_62_819" x1="123.499" y1="315.001" x2="123.499" y2="246.001" gradientUnits="userSpaceOnUse">
<stop stop-color="#003AAD"/>
<stop offset="0.504808" stop-color="#0D2578"/>
<stop offset="1" stop-color="#111143"/>
</linearGradient>
<linearGradient id="paint104_linear_62_819" x1="92.4986" y1="310.001" x2="92.4986" y2="240.001" gradientUnits="userSpaceOnUse">
<stop stop-color="#003AAD"/>
<stop offset="0.504808" stop-color="#0D2578"/>
<stop offset="1" stop-color="#111143"/>
</linearGradient>
<linearGradient id="paint105_linear_62_819" x1="62.4986" y1="309.001" x2="62.4986" y2="237.001" gradientUnits="userSpaceOnUse">
<stop stop-color="#003AAD"/>
<stop offset="0.504808" stop-color="#0D2578"/>
<stop offset="1" stop-color="#111143"/>
</linearGradient>
<linearGradient id="paint106_linear_62_819" x1="31.4986" y1="310.001" x2="31.4986" y2="236.001" gradientUnits="userSpaceOnUse">
<stop stop-color="#003AAD"/>
<stop offset="0.504808" stop-color="#0D2578"/>
<stop offset="1" stop-color="#111143"/>
</linearGradient>
<linearGradient id="paint107_linear_62_819" x1="1.49855" y1="312.001" x2="1.49855" y2="238.001" gradientUnits="userSpaceOnUse">
<stop stop-color="#003AAD"/>
<stop offset="0.504808" stop-color="#0D2578"/>
<stop offset="1" stop-color="#111143"/>
</linearGradient>
</defs>
</svg>
