<svg width="294" height="398" viewBox="0 0 294 398" fill="none" xmlns="http://www.w3.org/2000/svg">
<path d="M292.5 44.5V55.5L1.5 55.5L1.5 44.5L292.5 44.5Z" fill="#D00F00" stroke="#D00F00" stroke-width="3"/>
<path d="M292.5 214.5V225.5L1.5 225.5L1.5 214.5L292.5 214.5Z" fill="#D00F00" stroke="#D00F00" stroke-width="3"/>
<path d="M292.5 396.5L281.5 396.5L281.5 44.5L292.5 44.5L292.5 396.5Z" fill="#D00F00" stroke="#D00F00" stroke-width="3"/>
<path d="M12.5 396.5L1.50001 396.5L1.5 44.5L12.5 44.5L12.5 396.5Z" fill="#D00F00" stroke="#D00F00" stroke-width="3"/>
<path d="M43 0H251V367H43V0Z" fill="#D00F00"/>
<path d="M117.197 174.168L88.4555 67.2885V174.168H67.6864V26.6026H96.6373L120.343 114.931V26.6026H140.903V174.168H117.197Z" fill="white"/>
<path d="M140.904 26.6026H120.343V114.932L96.6389 26.6026H67.6864V174.168H88.4563V67.2901L117.196 174.168H140.904V26.6026ZM145.099 174.168C145.099 176.496 143.221 178.384 140.904 178.384H117.196C115.3 178.384 113.642 177.106 113.148 175.267L92.6521 99.0554V174.168C92.6521 176.496 90.7732 178.384 88.4563 178.384H67.6864C65.3691 178.384 63.4906 176.496 63.4906 174.168V26.6026C63.4906 24.2741 65.3691 22.3865 67.6864 22.3865H96.6389L97.3355 22.4441C98.9302 22.7138 100.255 23.8941 100.687 25.5033L116.147 83.1007V26.6026C116.147 24.2744 118.026 22.3869 120.343 22.3865H140.904C143.221 22.3869 145.099 24.2744 145.099 26.6026V174.168Z" fill="white"/>
<path d="M89.7575 193.068L107.38 313.439L125.002 193.068H146.191L123.534 340.633H89.1282L66.4709 193.068H89.7575Z" fill="white"/>
<path d="M89.7567 188.852L90.1419 188.868C92.053 189.043 93.6233 190.514 93.9074 192.454L107.38 284.473L120.852 192.454L120.926 192.071C121.378 190.199 123.052 188.852 125.003 188.852H146.191C147.415 188.852 148.577 189.388 149.375 190.321C150.172 191.255 150.524 192.494 150.337 193.71L127.679 341.275C127.363 343.331 125.602 344.849 123.532 344.849H89.1298C87.0596 344.849 85.2989 343.331 84.9832 341.275L62.3243 193.71C62.1378 192.494 62.4902 191.255 63.2872 190.321C64.0843 189.388 65.2471 188.852 66.4709 188.852H89.7567ZM66.4709 193.068L89.1298 340.633H123.532L146.191 193.068H125.003L107.38 313.438L89.7567 193.068H66.4709Z" fill="white"/>
<path d="M205.704 119.147H227.522V138.752C227.522 162.363 215.774 175.854 193.117 175.854C170.46 175.854 158.712 162.363 158.712 138.752V62.0183C158.712 38.4078 170.46 24.9161 193.117 24.9161C215.774 24.9161 227.522 38.4078 227.522 62.0183V76.3532H205.704V60.5426C205.704 50.0022 201.089 45.9969 193.746 45.9969C186.404 45.9969 181.788 50.0022 181.788 60.5426V140.228C181.788 150.768 186.404 154.563 193.746 154.563C201.089 154.563 205.704 150.768 205.704 140.228V119.147Z" fill="white"/>
<path d="M227.524 62.0175C227.524 39.1448 216.496 25.7704 195.207 24.9573L193.118 24.9162C170.461 24.9162 158.712 38.4075 158.712 62.0175V138.752C158.712 161.625 169.737 175.003 191.024 175.817L193.118 175.854C215.067 175.853 226.777 163.192 227.487 140.934L227.524 138.752V119.146H205.705V140.226L205.652 142.124C205.118 151.227 200.629 154.563 193.745 154.563V150.347C196.732 150.347 198.39 149.584 199.387 148.494C200.454 147.327 201.509 144.977 201.509 140.226V119.146C201.51 116.818 203.388 114.929 205.705 114.929H227.524C229.84 114.93 231.719 116.818 231.72 119.146V138.752C231.72 151.207 228.621 161.65 221.911 169.006C215.145 176.423 205.286 180.07 193.118 180.07C180.949 180.07 171.091 176.423 164.325 169.006C157.614 161.65 154.516 151.207 154.516 138.752V62.0175C154.516 49.5628 157.615 39.1193 164.325 31.7633C171.091 24.347 180.95 20.7 193.118 20.7C205.286 20.7002 215.145 24.3468 221.911 31.7633C228.621 39.1193 231.72 49.5628 231.72 62.0175V76.354C231.719 78.6816 229.84 80.5693 227.524 80.5702H205.705C203.388 80.5702 201.51 78.6822 201.509 76.354V60.5435C201.509 55.7969 200.459 53.3638 199.358 52.1318C198.339 50.9912 196.672 50.2131 193.745 50.2131C190.818 50.2134 189.154 50.9916 188.135 52.1318C187.035 53.3638 185.984 55.7969 185.984 60.5435V140.226C185.984 144.975 187.036 147.326 188.103 148.494C189.099 149.584 190.758 150.346 193.745 150.347V154.563C186.403 154.562 181.788 150.766 181.788 140.226V60.5435C181.788 50.0039 186.403 45.9975 193.745 45.9969L195.089 46.0463C201.647 46.5243 205.705 50.6609 205.705 60.5435V76.354H227.524V62.0175Z" fill="white"/>
<path d="M204.396 193.068L227.892 340.633H204.606L200.62 313.861H172.298L168.312 340.633H147.123L170.62 193.068H204.396ZM186.354 219.208L175.235 293.834H197.473L186.354 219.208Z" fill="white"/>
<path d="M204.398 188.852L204.779 188.868C206.671 189.041 208.235 190.484 208.54 192.401L232.035 339.966C232.229 341.185 231.881 342.428 231.084 343.367C230.287 344.306 229.121 344.849 227.892 344.849H204.607C202.53 344.849 200.764 343.323 200.456 341.259L197.006 318.078H175.912L172.462 341.259C172.154 343.323 170.388 344.849 168.311 344.849H147.124C145.895 344.849 144.729 344.306 143.932 343.367C143.135 342.428 142.787 341.185 142.981 339.966L166.476 192.401L166.554 192.026C167.022 190.175 168.686 188.852 170.618 188.852H204.398ZM170.618 193.068L147.124 340.633H168.311L172.298 313.862H200.62L204.607 340.633H227.892L204.398 193.068H170.618ZM197.473 293.835H175.236L186.352 219.209L197.473 293.835ZM180.108 289.619H192.601L186.352 247.68L180.108 289.619Z" fill="white"/>
</svg>
