<svg width="692" height="400" viewBox="0 0 692 400" fill="none" xmlns="http://www.w3.org/2000/svg">
<path d="M692 400L676 400L676 9.79136e-07L692 0L692 400Z" fill="#CF0127"/>
<path d="M16 400L-8.62471e-07 400L-1.33514e-05 9.79136e-07L16 0L16 400Z" fill="#CF0127"/>
<path d="M134.474 198.642L104.012 85.9128V198.642H82V43H112.684L137.809 136.163V43H159.599V198.642H134.474Z" fill="white"/>
<path d="M319.219 140.389H342.343V161.067C342.343 185.97 329.892 200.2 305.878 200.2C281.865 200.2 269.413 185.97 269.413 161.067V80.133C269.413 55.2302 281.865 41 305.878 41C329.892 41 342.343 55.2302 342.343 80.133V95.2525H319.219V78.5765C319.219 67.4592 314.327 63.2346 306.545 63.2346C298.763 63.2346 293.871 67.4592 293.871 78.5765V162.623C293.871 173.741 298.763 177.743 306.545 177.743C314.327 177.743 319.219 173.741 319.219 162.623V140.389Z" fill="white"/>
<path d="M469.094 43L487.771 169.96L506.448 43H528.905L504.892 198.642H468.427L444.413 43H469.094Z" fill="white"/>
<path fill-rule="evenodd" clip-rule="evenodd" d="M214.132 41C238.145 41 251.264 55.2301 251.264 80.1328V121.598C251.264 146.5 238.145 160.73 214.132 160.73C190.118 160.73 177 146.5 177 121.598V80.1328C177 55.2301 190.118 41 214.132 41ZM214.132 63.2344C206.35 63.2344 201.458 67.4591 201.458 78.5762V123.154C201.458 134.272 206.35 138.496 214.132 138.496C221.914 138.496 226.806 134.272 226.806 123.154V78.5762C226.806 67.4591 221.914 63.2344 214.132 63.2344Z" fill="white"/>
<path fill-rule="evenodd" clip-rule="evenodd" d="M395.545 41C419.558 41 432.677 55.2301 432.677 80.1328V121.598C432.677 146.5 419.558 160.73 395.545 160.73C371.532 160.73 358.413 146.5 358.413 121.598V80.1328C358.413 55.2302 371.532 41.0001 395.545 41ZM395.545 63.2344C387.763 63.2345 382.871 67.4593 382.871 78.5762V123.154C382.871 134.271 387.763 138.496 395.545 138.496C403.327 138.496 408.219 134.272 408.219 123.154V78.5762C408.219 67.4591 403.327 63.2344 395.545 63.2344Z" fill="white"/>
<path fill-rule="evenodd" clip-rule="evenodd" d="M578.545 41C602.558 41 615.677 55.2301 615.677 80.1328V121.598C615.677 146.5 602.558 160.73 578.545 160.73C554.532 160.73 541.413 146.5 541.413 121.598V80.1328C541.413 55.2302 554.532 41.0001 578.545 41ZM578.545 63.2344C570.763 63.2345 565.871 67.4593 565.871 78.5762V123.154C565.871 134.271 570.763 138.496 578.545 138.496C586.327 138.496 591.219 134.272 591.219 123.154V78.5762C591.219 67.4591 586.327 63.2344 578.545 63.2344Z" fill="white"/>
<path d="M306 257H322V241H338V257H354V241H370V257H386V241H402V273H386V369H370V273H354V369H338V273H322V369H306V273H290V241H306V257Z" fill="#CF0127"/>
</svg>
