<svg width="512" height="512" viewBox="0 0 512 512" fill="none" xmlns="http://www.w3.org/2000/svg">
<rect width="512" height="512" rx="256" fill="#111143"/>
<path d="M220.831 251L186.679 124.974V251H162V77H196.401L224.57 181.151V77H249V251H220.831Z" fill="white"/>
<path d="M324 186.126H350V209.246C350 237.089 336 253 309 253C282 253 268 237.089 268 209.246V118.754C268 90.9106 282 75 309 75C336 75 350 90.9106 350 118.754V135.659H324V117.014C324 104.584 318.5 99.8603 309.75 99.8603C301 99.8603 295.5 104.584 295.5 117.014V210.986C295.5 223.416 301 227.891 309.75 227.891C318.5 227.891 324 223.416 324 210.986V186.126Z" fill="white"/>
<path d="M186.458 268L207.237 409.934L228.016 268H253L226.284 442H185.716L159 268H186.458Z" fill="white"/>
<path d="M325.073 268L353 442H325.322L320.584 410.431H286.922L282.184 442H257L284.927 268H325.073ZM303.629 298.823L290.413 386.817H316.844L303.629 298.823Z" fill="white"/>
</svg>
