<svg width="449" height="450" viewBox="0 0 449 450" fill="none" xmlns="http://www.w3.org/2000/svg">
<path d="M50 400H100V450H50L0 400V350L50 400Z" fill="#223381"/>
<path d="M200 450H150V400H200V450Z" fill="#223381"/>
<path d="M300 450H250V400H300V450Z" fill="#223381"/>
<path d="M399 450H349V400L399 450Z" fill="#223381"/>
<path d="M449 400V450L399 400V350L449 400Z" fill="#223381"/>
<path d="M50 400V350H20V320H40V300H20V320H0V250L50 300H60V320H80V350H100L50 400Z" fill="#223381"/>
<path d="M250 400H200L175 375L150 400H100L150 350H200L250 400Z" fill="#223381"/>
<path fill-rule="evenodd" clip-rule="evenodd" d="M300 100H350L349.5 100.5L399 150H350L349.5 150.5L399 200H449V250L424 225L399 250H350L349.5 250.5L399 300H350L349.5 300.5L399 350L350 399V400H300L349 351V301L300 350V300H349V251L300 300L250 250L300 200L325 225L349.5 200.5L349 200V151L300 200H250L275 175L250 150H349V101L300 150L250 100V50L300 100ZM350 249L374 225L350 201V249Z" fill="#223381"/>
<path d="M300 350V400L250 350V300L300 350Z" fill="#223381"/>
<path d="M100 300L150 350H100V320H80V300H100Z" fill="#223381"/>
<path d="M200 300L150 350V300H100L150 250L200 300Z" fill="#223381"/>
<path d="M250 350H200V300L250 350Z" fill="#223381"/>
<path d="M449 300L399 350V250L449 300Z" fill="#223381"/>
<path d="M75 225L100 200V300L25 225L0 250V200H50L75 225Z" fill="#223381"/>
<path d="M200 300V250H250L200 300Z" fill="#223381"/>
<path d="M150 250H100L150 200V250Z" fill="#223381"/>
<path d="M200 250H150L200 200H250L200 250Z" fill="#223381"/>
<path d="M100 150L50 200V150L0 200V150L25 125L0 100V50L100 150Z" fill="#223381"/>
<path d="M170 120H150V150H170V120H190V100H210V120H230V150H250V200L200 150L175 175L200 200H150L125 175L100 200V150L150 100H170V120Z" fill="#223381"/>
<path d="M449 100V150L399 200V150L424 125L350 51V100L300 50H399L449 100Z" fill="#223381"/>
<path d="M250 120H230V100H250V120Z" fill="#223381"/>
<path d="M100 50V100L75 75L50 100V50L100 0H150L100 50Z" fill="#223381"/>
<path d="M150 100H100L150 50V100Z" fill="#223381"/>
<path d="M200 100L150 50H250L200 100Z" fill="#223381"/>
<path d="M50 50L0 0H50V50Z" fill="#223381"/>
<path d="M200 50L150 0H250L200 50Z" fill="#223381"/>
<path d="M399 50L349.5 0.5L300 50L275 25L250 50V0H399V50Z" fill="#223381"/>
<path d="M449 50L399 0H449V50Z" fill="#223381"/>
</svg>
