<svg width="480" height="522" viewBox="0 0 480 522" fill="none" xmlns="http://www.w3.org/2000/svg">
<rect width="20" height="200" fill="#0D2578"/>
<rect x="20" y="200" width="20" height="125" fill="#0D2578"/>
<rect x="240" width="20" height="200" fill="#0D2578"/>
<rect x="260" y="200" width="20" height="125" fill="#0D2578"/>
<rect x="120" width="20" height="200" fill="#0D2578"/>
<rect x="140" y="200" width="20" height="125" fill="#0D2578"/>
<rect x="360" width="20" height="200" fill="#0D2578"/>
<rect x="380" y="200" width="20" height="125" fill="#0D2578"/>
<rect x="80" width="20" height="200" fill="#0D2578"/>
<rect x="100" y="200" width="20" height="125" fill="#0D2578"/>
<rect x="320" width="20" height="200" fill="#0D2578"/>
<rect x="340" y="200" width="20" height="125" fill="#0D2578"/>
<rect x="200" width="20" height="200" fill="#0D2578"/>
<rect x="220" y="200" width="20" height="125" fill="#0D2578"/>
<rect x="440" width="20" height="200" fill="#0D2578"/>
<rect x="460" y="200" width="20" height="125" fill="#0D2578"/>
<rect x="40" width="20" height="200" fill="#0D2578"/>
<rect x="60" y="200" width="20" height="125" fill="#0D2578"/>
<rect x="280" width="20" height="200" fill="#0D2578"/>
<rect x="300" y="200" width="20" height="125" fill="#0D2578"/>
<rect x="160" width="20" height="200" fill="#0D2578"/>
<rect x="180" y="200" width="20" height="125" fill="#0D2578"/>
<rect x="400" width="20" height="200" fill="#0D2578"/>
<rect x="420" y="200" width="20" height="125" fill="#0D2578"/>
<rect y="325" width="20" height="84" fill="#0D2578"/>
<rect x="20" y="409" width="20" height="41" fill="#0D2578"/>
<rect x="240" y="325" width="20" height="84" fill="#0D2578"/>
<rect x="260" y="409" width="20" height="41" fill="#0D2578"/>
<rect x="120" y="325" width="20" height="84" fill="#0D2578"/>
<rect x="140" y="409" width="20" height="41" fill="#0D2578"/>
<rect x="360" y="325" width="20" height="84" fill="#0D2578"/>
<rect x="380" y="409" width="20" height="41" fill="#0D2578"/>
<rect x="80" y="325" width="20" height="84" fill="#0D2578"/>
<rect x="100" y="409" width="20" height="41" fill="#0D2578"/>
<rect x="320" y="325" width="20" height="84" fill="#0D2578"/>
<rect x="340" y="409" width="20" height="41" fill="#0D2578"/>
<rect x="200" y="325" width="20" height="84" fill="#0D2578"/>
<rect x="220" y="409" width="20" height="41" fill="#0D2578"/>
<rect x="440" y="325" width="20" height="84" fill="#0D2578"/>
<rect x="460" y="409" width="20" height="41" fill="#0D2578"/>
<rect x="40" y="325" width="20" height="84" fill="#0D2578"/>
<rect x="60" y="409" width="20" height="41" fill="#0D2578"/>
<rect x="280" y="325" width="20" height="84" fill="#0D2578"/>
<rect x="300" y="409" width="20" height="41" fill="#0D2578"/>
<rect x="160" y="325" width="20" height="84" fill="#0D2578"/>
<rect x="180" y="409" width="20" height="41" fill="#0D2578"/>
<rect x="400" y="325" width="20" height="84" fill="#0D2578"/>
<rect x="420" y="409" width="20" height="41" fill="#0D2578"/>
<rect y="450" width="20" height="28" fill="#0D2578"/>
<rect y="499" width="20" height="13" fill="#0D2578"/>
<rect x="20" y="478" width="20" height="21" fill="#0D2578"/>
<rect x="20" y="512" width="20" height="10" fill="#0D2578"/>
<rect x="240" y="450" width="20" height="28" fill="#0D2578"/>
<rect x="240" y="499" width="20" height="13" fill="#0D2578"/>
<rect x="260" y="478" width="20" height="21" fill="#0D2578"/>
<rect x="260" y="512" width="20" height="10" fill="#0D2578"/>
<rect x="120" y="450" width="20" height="28" fill="#0D2578"/>
<rect x="120" y="499" width="20" height="13" fill="#0D2578"/>
<rect x="140" y="478" width="20" height="21" fill="#0D2578"/>
<rect x="140" y="512" width="20" height="10" fill="#0D2578"/>
<rect x="360" y="450" width="20" height="28" fill="#0D2578"/>
<rect x="360" y="499" width="20" height="13" fill="#0D2578"/>
<rect x="380" y="478" width="20" height="21" fill="#0D2578"/>
<rect x="380" y="512" width="20" height="10" fill="#0D2578"/>
<rect x="80" y="450" width="20" height="28" fill="#0D2578"/>
<rect x="80" y="499" width="20" height="13" fill="#0D2578"/>
<rect x="100" y="478" width="20" height="21" fill="#0D2578"/>
<rect x="100" y="512" width="20" height="10" fill="#0D2578"/>
<rect x="320" y="450" width="20" height="28" fill="#0D2578"/>
<rect x="320" y="499" width="20" height="13" fill="#0D2578"/>
<rect x="340" y="478" width="20" height="21" fill="#0D2578"/>
<rect x="340" y="512" width="20" height="10" fill="#0D2578"/>
<rect x="200" y="450" width="20" height="28" fill="#0D2578"/>
<rect x="200" y="499" width="20" height="13" fill="#0D2578"/>
<rect x="220" y="478" width="20" height="21" fill="#0D2578"/>
<rect x="220" y="512" width="20" height="10" fill="#0D2578"/>
<rect x="440" y="450" width="20" height="28" fill="#0D2578"/>
<rect x="440" y="499" width="20" height="13" fill="#0D2578"/>
<rect x="460" y="478" width="20" height="21" fill="#0D2578"/>
<rect x="460" y="512" width="20" height="10" fill="#0D2578"/>
<rect x="40" y="450" width="20" height="28" fill="#0D2578"/>
<rect x="40" y="499" width="20" height="13" fill="#0D2578"/>
<rect x="60" y="478" width="20" height="21" fill="#0D2578"/>
<rect x="60" y="512" width="20" height="10" fill="#0D2578"/>
<rect x="280" y="450" width="20" height="28" fill="#0D2578"/>
<rect x="280" y="499" width="20" height="13" fill="#0D2578"/>
<rect x="300" y="478" width="20" height="21" fill="#0D2578"/>
<rect x="300" y="512" width="20" height="10" fill="#0D2578"/>
<rect x="160" y="450" width="20" height="28" fill="#0D2578"/>
<rect x="160" y="499" width="20" height="13" fill="#0D2578"/>
<rect x="180" y="478" width="20" height="21" fill="#0D2578"/>
<rect x="180" y="512" width="20" height="10" fill="#0D2578"/>
<rect x="400" y="450" width="20" height="28" fill="#0D2578"/>
<rect x="400" y="499" width="20" height="13" fill="#0D2578"/>
<rect x="420" y="478" width="20" height="21" fill="#0D2578"/>
<rect x="420" y="512" width="20" height="10" fill="#0D2578"/>
</svg>
