<svg width="450" height="450" viewBox="0 0 450 450" fill="none" xmlns="http://www.w3.org/2000/svg">
<path d="M50 450H0V400L50 450Z" fill="#223381"/>
<path d="M100 450H50V400H100V450Z" fill="#223381"/>
<path d="M250 400H200V450H150V400L175 375L150 350H200L250 400Z" fill="#223381"/>
<path d="M350 450H250V400H300L350 450Z" fill="#223381"/>
<path d="M450 400V450L400 400V350L450 400Z" fill="#223381"/>
<path d="M50 400H0V350H20V320H40V300H20V320H0V250L50 300H60V320H80V350H50V400Z" fill="#223381"/>
<path d="M150 400H100V350H150V400Z" fill="#223381"/>
<path d="M400 350L350 400H300L350 350V300L400 350Z" fill="#223381"/>
<path d="M300 350V400L250 350V300L300 350Z" fill="#223381"/>
<path d="M200 300L150 350V300H100L150 250L200 300Z" fill="#223381"/>
<path d="M250 350H200V300L250 350Z" fill="#223381"/>
<path d="M300 350V300H350L300 350Z" fill="#223381"/>
<path d="M450 300L400 350V250L450 300Z" fill="#223381"/>
<path d="M100 320H80V300H100V320Z" fill="#223381"/>
<path d="M100 300L50 250H100V300Z" fill="#223381"/>
<path d="M200 300V250H250L200 300Z" fill="#223381"/>
<path d="M300 250H350L300 300L250 250V200H300V250Z" fill="#223381"/>
<path d="M400 300H350V250L400 300Z" fill="#223381"/>
<path d="M50 250L25 225L0 250V200H50V250Z" fill="#223381"/>
<path d="M100 250V200H150L100 250Z" fill="#223381"/>
<path d="M210 120H230V150H250V200H200V150L175 175L200 200V250H150V200L125 175L100 200V150H170V120H190V100H210V120Z" fill="#223381"/>
<path d="M450 250L425 225L400 250H350V200H450V250Z" fill="#223381"/>
<path d="M50 150L0 200V150L25 125L0 100H50V150Z" fill="#223381"/>
<path d="M50 200V150H100L50 200Z" fill="#223381"/>
<path d="M350 200H300V150H350V200Z" fill="#223381"/>
<path d="M410 20H430V50H400L450 100V150L400 200V150L425 125L350 50H370V20H390V0H410V20Z" fill="#223381"/>
<path d="M100 100H150L100 150L50 100L100 50H150L100 100Z" fill="#223381"/>
<path d="M300 100H350L300 150L250 100V50L300 100Z" fill="#223381"/>
<path d="M400 150H350V100L400 150Z" fill="#223381"/>
<path d="M170 120H150V100H170V120Z" fill="#223381"/>
<path d="M250 120H230V100H250V120Z" fill="#223381"/>
<path d="M50 100L0 50H50V100Z" fill="#223381"/>
<path d="M300 50H250L200 100L150 50L200 0V50L250 0L275 25L300 0V50Z" fill="#223381"/>
<path d="M370 20H350V100L300 50L350 0H370V20Z" fill="#223381"/>
<path d="M0 50V0H50L0 50Z" fill="#223381"/>
<path d="M100 50H50L100 0H150L100 50Z" fill="#223381"/>
<path d="M450 20H430V0H450V20Z" fill="#223381"/>
</svg>
