<svg width="480" height="522" viewBox="0 0 480 522" fill="none" xmlns="http://www.w3.org/2000/svg">
<path d="M40 522H20V512H40V522Z" fill="#0D2578"/>
<path d="M80 522H60V512H80V522Z" fill="#0D2578"/>
<path d="M120 522H100V512H120V522Z" fill="#0D2578"/>
<path d="M160 522H140V512H160V522Z" fill="#0D2578"/>
<path d="M200 522H180V512H200V522Z" fill="#0D2578"/>
<path d="M240 522H220V512H240V522Z" fill="#0D2578"/>
<path d="M280 522H260V512H280V522Z" fill="#0D2578"/>
<path d="M320 522H300V512H320V522Z" fill="#0D2578"/>
<path d="M360 522H340V512H360V522Z" fill="#0D2578"/>
<path d="M400 522H380V512H400V522Z" fill="#0D2578"/>
<path d="M440 522H420V512H440V522Z" fill="#0D2578"/>
<path d="M480 522H460V512H480V522Z" fill="#0D2578"/>
<path d="M20 512H0V499H20V512Z" fill="#0D2578"/>
<path d="M60 512H40V499H60V512Z" fill="#0D2578"/>
<path d="M100 512H80V499H100V512Z" fill="#0D2578"/>
<path d="M140 512H120V499H140V512Z" fill="#0D2578"/>
<path d="M180 512H160V499H180V512Z" fill="#0D2578"/>
<path d="M220 512H200V499H220V512Z" fill="#0D2578"/>
<path d="M260 512H240V499H260V512Z" fill="#0D2578"/>
<path d="M300 512H280V499H300V512Z" fill="#0D2578"/>
<path d="M340 512H320V499H340V512Z" fill="#0D2578"/>
<path d="M380 512H360V499H380V512Z" fill="#0D2578"/>
<path d="M420 512H400V499H420V512Z" fill="#0D2578"/>
<path d="M460 512H440V499H460V512Z" fill="#0D2578"/>
<path d="M40 499H20V478H40V499Z" fill="#0D2578"/>
<path d="M80 499H60V478H80V499Z" fill="#0D2578"/>
<path d="M120 499H100V478H120V499Z" fill="#0D2578"/>
<path d="M160 499H140V478H160V499Z" fill="#0D2578"/>
<path d="M200 499H180V478H200V499Z" fill="#0D2578"/>
<path d="M240 499H220V478H240V499Z" fill="#0D2578"/>
<path d="M280 499H260V478H280V499Z" fill="#0D2578"/>
<path d="M320 499H300V478H320V499Z" fill="#0D2578"/>
<path d="M360 499H340V478H360V499Z" fill="#0D2578"/>
<path d="M400 499H380V478H400V499Z" fill="#0D2578"/>
<path d="M440 499H420V478H440V499Z" fill="#0D2578"/>
<path d="M480 499H460V478H480V499Z" fill="#0D2578"/>
<path d="M20 478H0V450H20V478Z" fill="#0D2578"/>
<path d="M60 478H40V450H60V478Z" fill="#0D2578"/>
<path d="M100 478H80V450H100V478Z" fill="#0D2578"/>
<path d="M140 478H120V450H140V478Z" fill="#0D2578"/>
<path d="M180 478H160V450H180V478Z" fill="#0D2578"/>
<path d="M220 478H200V450H220V478Z" fill="#0D2578"/>
<path d="M260 478H240V450H260V478Z" fill="#0D2578"/>
<path d="M300 478H280V450H300V478Z" fill="#0D2578"/>
<path d="M340 478H320V450H340V478Z" fill="#0D2578"/>
<path d="M380 478H360V450H380V478Z" fill="#0D2578"/>
<path d="M420 478H400V450H420V478Z" fill="#0D2578"/>
<path d="M460 478H440V450H460V478Z" fill="#0D2578"/>
<path d="M40 450H20V409H40V450Z" fill="#0D2578"/>
<path d="M80 450H60V409H80V450Z" fill="#0D2578"/>
<path d="M120 450H100V409H120V450Z" fill="#0D2578"/>
<path d="M160 450H140V409H160V450Z" fill="#0D2578"/>
<path d="M200 450H180V409H200V450Z" fill="#0D2578"/>
<path d="M240 450H220V409H240V450Z" fill="#0D2578"/>
<path d="M280 450H260V409H280V450Z" fill="#0D2578"/>
<path d="M320 450H300V409H320V450Z" fill="#0D2578"/>
<path d="M360 450H340V409H360V450Z" fill="#0D2578"/>
<path d="M400 450H380V409H400V450Z" fill="#0D2578"/>
<path d="M440 450H420V409H440V450Z" fill="#0D2578"/>
<path d="M480 450H460V409H480V450Z" fill="#0D2578"/>
<path d="M20 409H0V325H20V409Z" fill="#0D2578"/>
<path d="M60 409H40V325H60V409Z" fill="#0D2578"/>
<path d="M100 409H80V325H100V409Z" fill="#0D2578"/>
<path d="M140 409H120V325H140V409Z" fill="#0D2578"/>
<path d="M180 409H160V325H180V409Z" fill="#0D2578"/>
<path d="M220 409H200V325H220V409Z" fill="#0D2578"/>
<path d="M260 409H240V325H260V409Z" fill="#0D2578"/>
<path d="M300 409H280V325H300V409Z" fill="#0D2578"/>
<path d="M340 409H320V325H340V409Z" fill="#0D2578"/>
<path d="M380 409H360V325H380V409Z" fill="#0D2578"/>
<path d="M420 409H400V325H420V409Z" fill="#0D2578"/>
<path d="M460 409H440V325H460V409Z" fill="#0D2578"/>
<path d="M40 325H20V200H40V325Z" fill="#0D2578"/>
<path d="M80 325H60V200H80V325Z" fill="#0D2578"/>
<path d="M120 325H100V200H120V325Z" fill="#0D2578"/>
<path d="M160 325H140V200H160V325Z" fill="#0D2578"/>
<path d="M200 325H180V200H200V325Z" fill="#0D2578"/>
<path d="M240 325H220V200H240V325Z" fill="#0D2578"/>
<path d="M280 325H260V200H280V325Z" fill="#0D2578"/>
<path d="M320 325H300V200H320V325Z" fill="#0D2578"/>
<path d="M360 325H340V200H360V325Z" fill="#0D2578"/>
<path d="M400 325H380V200H400V325Z" fill="#0D2578"/>
<path d="M440 325H420V200H440V325Z" fill="#0D2578"/>
<path d="M480 325H460V200H480V325Z" fill="#0D2578"/>
<path d="M20 200H0V0H20V200Z" fill="#0D2578"/>
<path d="M60 200H40V0H60V200Z" fill="#0D2578"/>
<path d="M100 200H80V0H100V200Z" fill="#0D2578"/>
<path d="M140 200H120V0H140V200Z" fill="#0D2578"/>
<path d="M180 200H160V0H180V200Z" fill="#0D2578"/>
<path d="M220 200H200V0H220V200Z" fill="#0D2578"/>
<path d="M260 200H240V0H260V200Z" fill="#0D2578"/>
<path d="M300 200H280V0H300V200Z" fill="#0D2578"/>
<path d="M340 200H320V0H340V200Z" fill="#0D2578"/>
<path d="M380 200H360V0H380V200Z" fill="#0D2578"/>
<path d="M420 200H400V0H420V200Z" fill="#0D2578"/>
<path d="M460 200H440V0H460V200Z" fill="#0D2578"/>
</svg>
