<svg width="245" height="248" viewBox="0 0 245 248" fill="none" xmlns="http://www.w3.org/2000/svg">
<path fill-rule="evenodd" clip-rule="evenodd" d="M4 0.445C4 1.319 40.338 38 41.204 38C41.666 38 41.922 29.563 41.772 19.25L41.5 0.5L22.75 0.227997C12.438 0.0779968 4 0.176 4 0.445ZM61.293 19.25L42.035 38.5L42.017 59.482L42 80.464L52.268 70.231L62.536 59.998L72.499 69.999C77.979 75.5 82.808 80 83.231 80C83.654 80 84 70.658 84 59.24V38.48L102.5 20C112.675 9.836 121 1.178 121 0.760002C121 0.342002 111.899 0 100.775 0H80.55L61.293 19.25ZM129 0.739998C129 1.148 137.433 9.923 147.74 20.24L166.48 39H145.999H125.518L145.759 59.259C156.892 70.401 166 79.861 166 80.28C166 80.699 156.887 80.92 145.75 80.771L125.5 80.5L125.229 60.031L124.957 39.561L104.479 60.021L84 80.482V101.486V122.491L42.746 81.245C20.056 58.56 1.156 40 0.746 40C0.335 40 0 49.121 0 60.268V80.536L10.482 90.982L20.963 101.428L10.482 112.064L0 122.701V163.851C0 186.483 0.329 205 0.732 205C1.135 205 5.863 200.618 11.238 195.262L21.013 185.525L51.762 216.262C68.675 233.168 82.847 247 83.256 247C83.665 247 84 237.892 84 226.759V206.518L104.259 226.759C115.401 237.892 124.973 247 125.529 247C126.085 247 130.797 242.725 136 237.5C141.203 232.275 145.911 228 146.462 228C147.013 228 151.86 232.379 157.232 237.731L167 247.462V226.731V206H146H125V165C125 142.45 124.671 124 124.268 124C123.865 124 119.238 128.282 113.985 133.515L104.435 143.029L94.541 133.515C89.1 128.282 84.502 124 84.324 124C84.146 124 84 133 84 144V164H104C115 164 124 164.342 124 164.759C124 165.177 115 174.51 104 185.5L84 205.481V185.741C84 171.527 83.678 166 82.85 166C82.217 166 77.525 170.387 72.424 175.75L63.148 185.5L52.574 174.994L42 164.488L73.256 133.244L104.512 102L135.5 133L166.488 164H146.911C136.143 164 127.017 164.317 126.63 164.704C125.919 165.414 164.832 205 166.241 205C166.658 205 167 195.892 167 184.759V164.518L187.296 184.796C198.459 195.949 207.909 204.758 208.296 204.371C208.683 203.983 209 194.859 209 184.094V164.521L227 182.5L245 200.479V164.013V127.547L236.991 135.509L228.983 143.47L219.01 133.485L209.037 123.5L208.952 103.268C208.905 92.14 208.53 82.828 208.119 82.573C207.707 82.319 198.179 91.311 186.945 102.556L166.518 123H146.259C135.117 123 126 122.66 126 122.245C126 121.83 144.385 103.11 166.855 80.645C200.185 47.322 207.839 40.138 208.414 41.636C208.801 42.646 209.029 51.964 208.92 62.344L208.723 81.216L226.861 99.354L245 117.493V96.486V75.479L226.992 57.49L208.984 39.5L188.353 39L167.722 38.5L172.514 33.5C175.15 30.75 183.645 22.088 191.391 14.25L205.474 0H167.237C146.207 0 129 0.332998 129 0.739998ZM208.889 14.5C208.828 22.475 208.778 29.9 208.778 31C208.778 39.077 208.266 39.194 218.768 28.731C224.14 23.379 228.967 19 229.494 19C230.022 19 233.726 22.251 237.726 26.225L245 33.45V16.725V0H227H209L208.889 14.5ZM20.5 144L0.518999 164H21.259H42V144C42 133 41.658 124 41.241 124C40.823 124 31.49 133 20.5 144ZM187.445 144.055L167.519 164H187.648H207.777L208.443 160.454C209.284 155.97 208.937 125.079 208.039 124.524C207.671 124.297 198.404 133.086 187.445 144.055ZM226.5 224C236.389 233.9 244.596 242 244.74 242C244.883 242 245 233.9 245 224V206H226.76H208.521L226.5 224ZM0 227V247H20C31 247 40 246.736 40 246.414C40 245.496 1.725 207 0.813 207C0.366 207 0 216 0 227ZM187.47 227.038L167.5 247.035L188 246.767L208.5 246.5L208.773 227.573C208.923 217.163 208.684 208.284 208.243 207.843C207.802 207.402 198.454 216.039 187.47 227.038Z" fill="#223381"/>
</svg>
